<mxfile host="app.diagrams.net" modified="2022-03-07T07:44:29.105Z" agent="5.0 (Windows NT 10.0; Win64; x64) AppleWebKit/537.36 (KHTML, like Gecko) Chrome/98.0.4758.102 Safari/537.36" etag="1YgY4c2AGJXqiTnwPz-h" version="16.6.1" type="github">
  <diagram id="ke5M2oqr5fqlh0JRbFrA" name="Page-1">
    <mxGraphModel dx="1234" dy="516" grid="0" gridSize="10" guides="1" tooltips="1" connect="1" arrows="1" fold="1" page="1" pageScale="1" pageWidth="1169" pageHeight="827" math="0" shadow="0">
      <root>
        <mxCell id="0" />
        <mxCell id="1" parent="0" />
        <mxCell id="skUgtiMYsfXwCt5wcW-R-2" style="edgeStyle=none;shape=link;orthogonalLoop=1;jettySize=auto;html=1;exitX=0.5;exitY=1;exitDx=0;exitDy=0;exitPerimeter=0;" parent="1" edge="1">
          <mxGeometry relative="1" as="geometry">
            <mxPoint x="305" y="330" as="sourcePoint" />
            <mxPoint x="305" y="422.5" as="targetPoint" />
          </mxGeometry>
        </mxCell>
        <mxCell id="skUgtiMYsfXwCt5wcW-R-4" style="edgeStyle=none;shape=link;orthogonalLoop=1;jettySize=auto;html=1;" parent="1" target="skUgtiMYsfXwCt5wcW-R-11" edge="1">
          <mxGeometry relative="1" as="geometry">
            <mxPoint x="305" y="452.5" as="sourcePoint" />
          </mxGeometry>
        </mxCell>
        <mxCell id="skUgtiMYsfXwCt5wcW-R-5" style="edgeStyle=none;shape=link;orthogonalLoop=1;jettySize=auto;html=1;" parent="1" target="skUgtiMYsfXwCt5wcW-R-8" edge="1">
          <mxGeometry relative="1" as="geometry">
            <mxPoint x="334" y="438" as="sourcePoint" />
          </mxGeometry>
        </mxCell>
        <mxCell id="skUgtiMYsfXwCt5wcW-R-7" style="edgeStyle=none;shape=link;orthogonalLoop=1;jettySize=auto;html=1;entryX=0.33;entryY=0.5;entryDx=0;entryDy=0;entryPerimeter=0;" parent="1" source="skUgtiMYsfXwCt5wcW-R-8" target="skUgtiMYsfXwCt5wcW-R-9" edge="1">
          <mxGeometry relative="1" as="geometry">
            <Array as="points">
              <mxPoint x="540" y="290" />
            </Array>
          </mxGeometry>
        </mxCell>
        <mxCell id="skUgtiMYsfXwCt5wcW-R-8" value="" style="fontColor=#0066CC;verticalAlign=top;verticalLabelPosition=bottom;labelPosition=center;align=center;html=1;outlineConnect=0;fillColor=#CCCCCC;strokeColor=#6881B3;gradientColor=none;gradientDirection=north;strokeWidth=2;shape=mxgraph.networks.switch;" parent="1" vertex="1">
          <mxGeometry x="490" y="422.5" width="100" height="30" as="geometry" />
        </mxCell>
        <mxCell id="skUgtiMYsfXwCt5wcW-R-9" value="" style="fontColor=#0066CC;verticalAlign=top;verticalLabelPosition=bottom;labelPosition=center;align=center;html=1;outlineConnect=0;fillColor=#CCCCCC;strokeColor=#6881B3;gradientColor=none;gradientDirection=north;strokeWidth=2;shape=mxgraph.networks.radio_tower;" parent="1" vertex="1">
          <mxGeometry x="590" y="240" width="55" height="100" as="geometry" />
        </mxCell>
        <mxCell id="skUgtiMYsfXwCt5wcW-R-10" style="edgeStyle=none;shape=link;orthogonalLoop=1;jettySize=auto;html=1;entryX=0;entryY=0;entryDx=0;entryDy=0;entryPerimeter=0;" parent="1" edge="1">
          <mxGeometry relative="1" as="geometry">
            <mxPoint x="329" y="451.75" as="sourcePoint" />
            <mxPoint x="512" y="548.25" as="targetPoint" />
            <Array as="points">
              <mxPoint x="329" y="548.25" />
            </Array>
          </mxGeometry>
        </mxCell>
        <mxCell id="skUgtiMYsfXwCt5wcW-R-11" value="" style="fontColor=#0066CC;verticalAlign=top;verticalLabelPosition=bottom;labelPosition=center;align=center;html=1;outlineConnect=0;fillColor=#CCCCCC;strokeColor=#6881B3;gradientColor=none;gradientDirection=north;strokeWidth=2;shape=mxgraph.networks.nas_filer;" parent="1" vertex="1">
          <mxGeometry x="255" y="557.5" width="100" height="35" as="geometry" />
        </mxCell>
        <mxCell id="skUgtiMYsfXwCt5wcW-R-12" value="" style="fontColor=#0066CC;verticalAlign=top;verticalLabelPosition=bottom;labelPosition=center;align=center;html=1;outlineConnect=0;fillColor=#CCCCCC;strokeColor=#6881B3;gradientColor=none;gradientDirection=north;strokeWidth=2;shape=mxgraph.networks.pc;" parent="1" vertex="1">
          <mxGeometry x="495" y="540" width="79" height="50" as="geometry" />
        </mxCell>
        <mxCell id="skUgtiMYsfXwCt5wcW-R-13" style="edgeStyle=none;shape=link;orthogonalLoop=1;jettySize=auto;html=1;entryX=0.33;entryY=0.5;entryDx=0;entryDy=0;entryPerimeter=0;" parent="1" target="skUgtiMYsfXwCt5wcW-R-16" edge="1">
          <mxGeometry relative="1" as="geometry">
            <mxPoint x="740" y="290" as="targetPoint" />
            <Array as="points">
              <mxPoint x="770" y="515" />
              <mxPoint x="770" y="290" />
            </Array>
            <mxPoint x="770" y="566" as="sourcePoint" />
          </mxGeometry>
        </mxCell>
        <mxCell id="skUgtiMYsfXwCt5wcW-R-15" value="" style="html=1;outlineConnect=0;fillColor=#CCCCCC;strokeColor=#6881B3;gradientColor=none;gradientDirection=north;strokeWidth=2;shape=mxgraph.networks.comm_link_edge;html=1;startArrow=none;" parent="1" source="skUgtiMYsfXwCt5wcW-R-16" edge="1">
          <mxGeometry width="100" height="100" relative="1" as="geometry">
            <mxPoint x="650" y="260" as="sourcePoint" />
            <mxPoint x="810" y="260" as="targetPoint" />
          </mxGeometry>
        </mxCell>
        <mxCell id="skUgtiMYsfXwCt5wcW-R-16" value="" style="fontColor=#0066CC;verticalAlign=top;verticalLabelPosition=bottom;labelPosition=center;align=center;html=1;outlineConnect=0;fillColor=#CCCCCC;strokeColor=#6881B3;gradientColor=none;gradientDirection=north;strokeWidth=2;shape=mxgraph.networks.radio_tower;" parent="1" vertex="1">
          <mxGeometry x="780" y="240" width="55" height="100" as="geometry" />
        </mxCell>
        <mxCell id="skUgtiMYsfXwCt5wcW-R-17" value="" style="html=1;outlineConnect=0;fillColor=#CCCCCC;strokeColor=#6881B3;gradientColor=none;gradientDirection=north;strokeWidth=2;shape=mxgraph.networks.comm_link_edge;html=1;endArrow=none;" parent="1" edge="1">
          <mxGeometry width="100" height="100" relative="1" as="geometry">
            <mxPoint x="650" y="260" as="sourcePoint" />
            <mxPoint x="770" y="270" as="targetPoint" />
          </mxGeometry>
        </mxCell>
        <mxCell id="skUgtiMYsfXwCt5wcW-R-19" value="ROUTER BGP&lt;br style=&quot;font-size: 10px;&quot;&gt;Merek: Mikrotik&lt;br style=&quot;font-size: 10px;&quot;&gt;Type: RB4011igs+RM&lt;br style=&quot;font-size: 10px;&quot;&gt;SN: F0380FC9FFC1" style="text;html=1;align=left;verticalAlign=middle;resizable=0;points=[];autosize=1;strokeColor=none;fillColor=none;fontStyle=1;fontColor=#666666;fontSize=10;" parent="1" vertex="1">
          <mxGeometry x="360" y="290" width="120" height="50" as="geometry" />
        </mxCell>
        <mxCell id="skUgtiMYsfXwCt5wcW-R-20" value="&lt;span style=&quot;font-size: 10px;&quot;&gt;ROUTER DISTRIBUSI&lt;br style=&quot;font-size: 10px;&quot;&gt;Merek: Mikrotik&lt;/span&gt;&lt;br style=&quot;font-size: 10px;&quot;&gt;&lt;span style=&quot;font-size: 10px;&quot;&gt;Type: RB4011igs+RM&lt;br style=&quot;font-size: 10px;&quot;&gt;SN: D1260BA8DC32&lt;br style=&quot;font-size: 10px;&quot;&gt;&lt;/span&gt;" style="text;html=1;align=left;verticalAlign=middle;resizable=0;points=[];autosize=1;strokeColor=none;fillColor=none;fontStyle=1;fontColor=#666666;fontSize=10;" parent="1" vertex="1">
          <mxGeometry x="348" y="458" width="120" height="50" as="geometry" />
        </mxCell>
        <mxCell id="skUgtiMYsfXwCt5wcW-R-21" value="DNS SERVER&lt;br style=&quot;font-size: 10px;&quot;&gt;Merek:&amp;nbsp;Hewlett-Packard (HP)&lt;br style=&quot;font-size: 10px;&quot;&gt;Type: Compack 8300&lt;br style=&quot;font-size: 10px;&quot;&gt;SN: SGH238TCZT" style="text;html=1;align=left;verticalAlign=middle;resizable=0;points=[];autosize=1;strokeColor=none;fillColor=none;fontStyle=1;fontColor=#666666;fontSize=10;" parent="1" vertex="1">
          <mxGeometry x="264" y="602.5" width="150" height="50" as="geometry" />
        </mxCell>
        <mxCell id="skUgtiMYsfXwCt5wcW-R-22" value="MONITORING&lt;br&gt;&lt;span&gt;Merek: Fujitsu&lt;/span&gt;&lt;br&gt;&lt;span&gt;Type:&amp;nbsp;&lt;/span&gt;FMV Esprimo D5295&lt;br&gt;&lt;span&gt;SN:&amp;nbsp;&lt;/span&gt;SMA0804023" style="text;html=1;align=left;verticalAlign=middle;resizable=0;points=[];autosize=1;strokeColor=none;fillColor=none;fontStyle=1;fontColor=#666666;fontSize=10;" parent="1" vertex="1">
          <mxGeometry x="495" y="602.5" width="140" height="50" as="geometry" />
        </mxCell>
        <mxCell id="skUgtiMYsfXwCt5wcW-R-23" value="SWITCH DISTRIBUSI&lt;br style=&quot;font-size: 10px;&quot;&gt;Merek: Mikrotik&lt;br style=&quot;font-size: 10px;&quot;&gt;Type: CSS610-8G-2S+IN&lt;br style=&quot;font-size: 10px;&quot;&gt;SN: D19C0ECF25AA" style="text;html=1;align=left;verticalAlign=middle;resizable=0;points=[];autosize=1;strokeColor=none;fillColor=none;fontStyle=1;fontColor=#666666;fontSize=10;" parent="1" vertex="1">
          <mxGeometry x="492" y="456" width="130" height="50" as="geometry" />
        </mxCell>
        <mxCell id="skUgtiMYsfXwCt5wcW-R-25" value="RADIO Wireless&lt;br style=&quot;font-size: 10px;&quot;&gt;Merek: Mikrotik&lt;br style=&quot;font-size: 10px;&quot;&gt;Type:&amp;nbsp;RBSXTsq-5HPnD&lt;br style=&quot;font-size: 10px;&quot;&gt;SN: DF950D7A07A1" style="text;html=1;align=left;verticalAlign=middle;resizable=0;points=[];autosize=1;strokeColor=none;fillColor=none;fontStyle=1;fontColor=#666666;fontSize=10;" parent="1" vertex="1">
          <mxGeometry x="585" y="346" width="130" height="50" as="geometry" />
        </mxCell>
        <mxCell id="skUgtiMYsfXwCt5wcW-R-26" value="RADIO Wireless&lt;br style=&quot;font-size: 10px;&quot;&gt;Merek: Mikrotik&lt;br style=&quot;font-size: 10px;&quot;&gt;Type:&amp;nbsp;RBSXTsq5nD&lt;br style=&quot;font-size: 10px;&quot;&gt;SN:&amp;nbsp;EDC90E67BBB1" style="text;html=1;align=left;verticalAlign=middle;resizable=0;points=[];autosize=1;strokeColor=none;fillColor=none;fontStyle=1;fontColor=#666666;fontSize=10;" parent="1" vertex="1">
          <mxGeometry x="780" y="346" width="110" height="50" as="geometry" />
        </mxCell>
        <mxCell id="skUgtiMYsfXwCt5wcW-R-34" value="AS142364" style="text;html=1;align=center;verticalAlign=middle;resizable=0;points=[];autosize=1;strokeColor=none;fillColor=none;fontSize=12;fontColor=#CC6600;fontStyle=1" parent="1" vertex="1">
          <mxGeometry x="271" y="272" width="70" height="20" as="geometry" />
        </mxCell>
        <mxCell id="Q-YCHaU_LPd9_TC3c76s-3" value="Wireless 5.8GHz" style="text;html=1;align=center;verticalAlign=middle;resizable=0;points=[];autosize=1;strokeColor=none;fillColor=none;fontColor=#666666;fontStyle=1;fontSize=10;" parent="1" vertex="1">
          <mxGeometry x="662" y="276" width="90" height="20" as="geometry" />
        </mxCell>
        <mxCell id="Unn4bx_49VbfmhZd9Ej_-1" value="Ethernet" style="text;html=1;align=center;verticalAlign=middle;resizable=0;points=[];autosize=1;strokeColor=none;fillColor=none;rotation=90;fontSize=10;" parent="1" vertex="1">
          <mxGeometry x="756" y="450" width="50" height="20" as="geometry" />
        </mxCell>
        <mxCell id="Unn4bx_49VbfmhZd9Ej_-2" value="Ethernet" style="text;html=1;align=center;verticalAlign=middle;resizable=0;points=[];autosize=1;strokeColor=none;fillColor=none;rotation=90;fontSize=10;" parent="1" vertex="1">
          <mxGeometry x="271" y="362" width="50" height="20" as="geometry" />
        </mxCell>
        <mxCell id="Unn4bx_49VbfmhZd9Ej_-3" value="Ethernet" style="text;html=1;align=center;verticalAlign=middle;resizable=0;points=[];autosize=1;strokeColor=none;fillColor=none;rotation=90;fontSize=10;" parent="1" vertex="1">
          <mxGeometry x="270" y="488" width="50" height="20" as="geometry" />
        </mxCell>
        <mxCell id="Unn4bx_49VbfmhZd9Ej_-4" value="Ethernet" style="text;html=1;align=center;verticalAlign=middle;resizable=0;points=[];autosize=1;strokeColor=none;fillColor=none;fontSize=10;" parent="1" vertex="1">
          <mxGeometry x="392" y="549" width="50" height="20" as="geometry" />
        </mxCell>
        <mxCell id="Unn4bx_49VbfmhZd9Ej_-5" value="Ethernet" style="text;html=1;align=center;verticalAlign=middle;resizable=0;points=[];autosize=1;strokeColor=none;fillColor=none;fontSize=10;" parent="1" vertex="1">
          <mxGeometry x="398" y="419" width="48" height="16" as="geometry" />
        </mxCell>
        <mxCell id="Unn4bx_49VbfmhZd9Ej_-6" value="Ethernet" style="text;html=1;align=center;verticalAlign=middle;resizable=0;points=[];autosize=1;strokeColor=none;fillColor=none;rotation=90;fontSize=10;fontStyle=0" parent="1" vertex="1">
          <mxGeometry x="505" y="350" width="50" height="20" as="geometry" />
        </mxCell>
        <mxCell id="ru4b-D5XG0hifPztKetk-3" value="" style="shape=mxgraph.cisco.routers.router;sketch=0;html=1;pointerEvents=1;dashed=0;fillColor=#036897;strokeColor=#ffffff;strokeWidth=2;verticalLabelPosition=bottom;verticalAlign=top;align=center;outlineConnect=0;fontSize=12;" parent="1" vertex="1">
          <mxGeometry x="267" y="408" width="78" height="53" as="geometry" />
        </mxCell>
        <mxCell id="ru4b-D5XG0hifPztKetk-24" style="edgeStyle=orthogonalEdgeStyle;shape=link;rounded=0;orthogonalLoop=1;jettySize=auto;html=1;fontSize=11;fontColor=#FFB570;strokeColor=#CC6600;strokeWidth=2;" parent="1" source="ru4b-D5XG0hifPztKetk-4" target="ru4b-D5XG0hifPztKetk-23" edge="1">
          <mxGeometry relative="1" as="geometry" />
        </mxCell>
        <mxCell id="ru4b-D5XG0hifPztKetk-4" value="" style="shape=mxgraph.cisco.routers.router;sketch=0;html=1;pointerEvents=1;dashed=0;fillColor=#036897;strokeColor=#ffffff;strokeWidth=2;verticalLabelPosition=bottom;verticalAlign=top;align=center;outlineConnect=0;fontSize=12;" parent="1" vertex="1">
          <mxGeometry x="267" y="296" width="78" height="53" as="geometry" />
        </mxCell>
        <mxCell id="ru4b-D5XG0hifPztKetk-9" value="KONFIGURASI SISTEM PENYELENGGARA JASA AKSES INTERNET&lt;br style=&quot;font-size: 10px;&quot;&gt;PT SUBNET DATA NUSANTARA" style="text;html=1;align=right;verticalAlign=middle;resizable=0;points=[];autosize=1;strokeColor=none;fillColor=none;fontSize=10;fontStyle=1;fontColor=#4D4D4D;" parent="1" vertex="1">
          <mxGeometry x="620" y="164" width="340" height="30" as="geometry" />
        </mxCell>
        <mxCell id="ru4b-D5XG0hifPztKetk-17" value="" style="shape=image;verticalLabelPosition=bottom;verticalAlign=top;imageAspect=0;aspect=fixed;image=data:image/png,iVBORw0KGgoAAAANSUhEUgAAAPwAAAClCAYAAAB4KpBYAAAAAXNSR0IArs4c6QAAAARnQU1BAACxjwv8YQUAAAAJcEhZcwAALiMAAC4jAXilP3YAAAFZaVRYdFhNTDpjb20uYWRvYmUueG1wAAAAAAA8eDp4bXBtZXRhIHhtbG5zOng9ImFkb2JlOm5zOm1ldGEvIiB4OnhtcHRrPSJYTVAgQ29yZSA1LjQuMCI+CiAgIDxyZGY6UkRGIHhtbG5zOnJkZj0iaHR0cDovL3d3dy53My5vcmcvMTk5OS8wMi8yMi1yZGYtc3ludGF4LW5zIyI+CiAgICAgIDxyZGY6RGVzY3JpcHRpb24gcmRmOmFib3V0PSIiCiAgICAgICAgICAgIHhtbG5zOnRpZmY9Imh0dHA6Ly9ucy5hZG9iZS5jb20vdGlmZi8xLjAvIj4KICAgICAgICAgPHRpZmY6T3JpZW50YXRpb24+MTwvdGlmZjpPcmllbnRhdGlvbj4KICAgICAgPC9yZGY6RGVzY3JpcHRpb24+CiAgIDwvcmRmOlJERj4KPC94OnhtcG1ldGE+CkzCJ1kAAAAhdEVYdENyZWF0aW9uIFRpbWUAMjAyMjowMToyNSAwODo1NTozOGhLTjIAAGnTSURBVHhe7X0HgFXF2fbMnHbLdgQBUVBRE9AYxSS2CBiTYK+LFBVbMM0Ykz+JfpqsJOb7TNQYP03yaYyGREBYe0FiihCNFaKxYEMFpZdtt546//POuWe9uyywlaXcB2bPuXPOmZkzZ55533cqZyV0GnVjn9YrBu5v1CR9GfqMCA9AIvMxb6pZ71125xFuwatfIJ8eq7Nx4wLOZwQFr1bIv55QKS19OGd8P8n4vozLvZnkQ3FpIK5W4ZiAsxjjMSalywTP45jD7xSuN+C4lnH2MfPlB/j9HjOD98XRT8H/EwTzJ+B53HniAodzVsinEnYUlAjfCdTV1YkZM2YEvzpj2XSNa3WmbqzRhLBMYUhD05kudFcIbRCK++21fyz7hQSL6DkQq98KPIhfJrXkaJx+HqT9vOT8UPBvf540EiyhM6YjiZQ6H/WCixMXR6rHAjgJp+G6JhhID4f7wF4FuoZ7Zdanim0VPJbiRV9gAV/EByRf4AfXO+GNuPJGrclG17sl4u84KHzFEraGujoJwvPgV6e/97MhFSOvTTnrWcJIEtEZEZ6zgA0sN9ja5swdtTPLvi5lgfB8+xAekRAdJUl3yeOHgKFf5EIeDv/huFAOjmq4xUP9Q1KfbicKWzhL4lgOV8F1SHUTt9EVSrXjM+lJD6GCwHgPTu+E56SksHRuIGQDN+twdH/GZdJn7yIznuJ+MJePX/AsfBVCrWORXyJ+/6NE+E4gIvwtZ7x/dZlV/d+ul0mD6JYOshtCYzg65bHyZMbO3DJxZtn3+o3wi6cbMrNij5zt8wRnGaa7GT5+kVe4rQ2krBPyqefiTIuV8bishmQfjOpgOBPBAVBQRuEWcvvzMl1X0p40ABuSPQhQE6CGC2kOJYZoLAWHysPMQgWQQz3hBf/GHb9nRnKmOPp+mAUUZy0qi1FQNjY3N0rYPigRvhOICH/zGcuurYnv+bO822TrmmEVyI4yrjnViXKzJZe7tXZm4rvbm/B9hWDRqbDz3TEQ+2NB3uMg5Q/m5RDrRFdbaQBRewXUHNL1VSVAtYDG4uA2bpXN7mp43cT9zO9Q+eTpOlVM/Ig7+7WtY3cFKXC7NeQdYwx5z9gYNTYp9+4ES8JmL1zuEDsbi6kCkqi05tVK7em6p/Wn6yTc07qcJ7V58+ZpStpLJuQ8hnM4HOk5MfaxD8VxC+4Xx82/XIydfyhzxeEy5V0rM95isvV5pWFwSxhguAOtACo7hy7AKQwps14Asru4PpTXWL+SWuLN4J8nT6JwieyU19vK5xJ6H7u1hAdxlSpc+NkGKLRKWcUph4TnBZX+msrYwOvzXnNeqfSQ8IVGO6cqXm415zO3njuzrF8lPDUYLqxjWq5BavEWznMVUsZruD9uBvM7akQk7WXoGqbtbUnB3mPs4w08uGwJgxkAkY1KgL1Zq9N9xY1xBPnMyeMQ1wWI8GxebVawNNR416cW/RjyLSxXlLkBLHvOXR7XYqTuyxbnCRaIK8W4J95TKv7C9XxLZkcJvY/dmvCEYM6E/ZlpDPSswNUtX6iOKY29I45c0CLrmOAzWFBkw39CeEE2fKjSm8KwK+NlsVbCb+dWekrf6KVvgpijWW09c7cWL6XtujqmKrCCV4eANmAOXM+C8Yu4IiPlhfzCBIPHc0RQpZoTgoUnHwC7fzpOvwlJnpANMPQZSXtmkKSPyI8E2crWr7IM2eykoSFcKcY+eZe6tngMVPwlJRV/O2C3JDypkijxqsC79518n15lnOv7TprHWEKYKNgyOAGq7N/l02NjVLhbbfjT379uz7J96lLOOhZXrfShhFet9GVJtjGd+W3tzLJvPT1WKqm4YVA9ynktnXaIN0cxuS3ibQmKuGOZNnoQkxPruV/wVph9SWpPzZGf0oR2EKqe/XHzsIDJgSBfOZ6LcUmt9KrVPgc+NgUsWMuZ9j4UmqUOd1+fek/VB4WgFMgEKNYQ5DxI5oHrDTZunBM1wEHi74d8+zGP6xdSqYJK70KyU+dfWMbIjxr7pHS4BWlPPQIpZyY/7skL1fMlu367YPckPGzWqKB6953yoDbIOtPP53ytDAyOodjb3lfEF5/8a0R43Eb5JG8++Z29NCO2r6Vzx9QNbjCD6brBNFQRGjcNlPBVk2fGl1O4nQdpA53TBMgOr1/KOKR4UCzFZ57fPCCp6Uf7Un4JgR0JU+JATejVpobaq/CFQTaSsspFoEuoBMKXg/P8gDleLgfPd2CVPC0ke/icPyX+SfcSQk2C8aiCUTb4qWs0NmYIJHor8ccFMrhTVFkHyCaS9iTluWoTiABbgYit82qLy0ZnMfSEk1DBbqB++/amQwm9i0Jx2L3QRsLPOXm2XqFPDrjbxCyZAIs1lP6vQN38BzXgiQMX2OqhThLzF6e9NdTk5i26EHFN0z3BNU6t+RrUfw2ClbQCmAKuZLxGMD7/nD8mfkXPkd2/JZv/jumLjdXvjJEzCuo1Ye5FLQNhC0/Ak+fgueMSRrKKxsl4eCvPd5kfeBCnAQS6Uqu3mW7cgTqEC43rSJ8JzYW64iVz3NxbPpN/DOz0zCn3DV5Ht9KIw9GDxrVqFtTeAU0GsYddbqQByMGZ23lS/3rYmh9AE+Am3RsB70v57/MK04Bdvwrnx4vjnnyXGvPESVGel9Db2D0J30bCnzxfG152IktnGatCKY/heqNzojhu/oIiCa9A3JlYWy9GjaptJdB14R/5q9qPY9+/f58cCH9QmVH5dtKsRO4GDLY+NACQXDkQHlHQYLY9koytbMo+PnFm8lQKgqQ3b6fekx29XzWTR9zJlapLrew8kR7HuDgPaTmjwkpWUUJyLhGc6ElJDMfFRV+WWByebQ30GP0vQP1EMmFzmzqsHNQkTbnm5kD6v9V899aI+LdOeNe6YsGBbchZbI8H/zzpfCTgbh7TdJn3bSREDbstBiKyUTFYMu02Ml8cJ8Y/8UaJ9H2H3bNbRLE0BKTTS/7q9Cvgy1OsxVkEsj8LabRBXdwwqA0BSY2ur5/ok90dOSIpSeaymr2V9NWl7jt+viVlbwiyTpOddhqdDBwdU06Tk8q3uLabSTegfgGa1F+gKEmM2gDmXx5YkKAOkX3uJU01cy/IfIMnMs9bRvJvlbHEhYawqlJ2xknbWcfzHfBGdYnpSAsqMwBE7xzZCbgzuh/SGnwXUMt1XwYi7TT7m7INIJ+oLLNqrraZeP335677Nj1FZCfSIxdb4yGyq26+ebUmKs0/w/g4Rub8TTwBUlPDXbsUUSUgM16eJ41qJoJ/Bv888UAiOz1fuKWEXkQnC0QJ20Jd7RvmjPqDnZtPfW8k18QbMT0GIgSQ6mpgjpLykaTXOHcq4kmzJZ+9r/aPycnq+ULDIBH9pNuEkm6zJ63dU7MSl3EmLi6PJYeTHZ6xMwF4ievSAAmpUawgkLsPep764MhBrBeOgfIPf5O49z2cu6YWi+uaxVpym2Dbe9/4xv0jltZRI+U4pirAQpAKkYakWvI1uQikHyKzno1qhYb1fgK8hAxkjpcZcZn2Pua+OJyPf3wjDcnF86Uuu17E7inh+xgQkwSc0R+iTfiPzsPfilOF3yGoMYyORPY/nbcmOXda6jrdKvtPuVU+I24mh6fyGS/jZJV5AUkcx189Cru7UMQOApgD5HzY/5HzwqNPjs7JZAh0VALxjJ1yGrMbXEsvP8712ZJfn/nhRdS2QGQnk6MQtAKRnUhPfe7M046TGXcTj2sWom0r6fEK0EtAdjfHK429oSQ9Tt5E9tLgnN7Fbp+ZVKBUI1OxU41Q2xfURUfHedNSU2Na+dvlVlmdpcf3BMm9vJuhlmtS2WOQ7qJHJMc/kt5tCK5IHZ5TY194LPyW0X0ec32XnjWDwNea8xuhZfCYqSXu/uWp795KYVMjHjXoqYgKUBKeGj/HP7YMSf8qJLzDYY+gsmnbGk+k5yA9LB5eZX0Bqr3qo2fjFpYI34vY7gV7Z4OSMEMfbyO5WjEG7oP9Aj6x3i9W6YXGX7e0GMgZSKj00PA/UefJCS7siljSgg0Olb5scqTOz70gdeWg8rJfNeYcEM4NG+FCovf4O5E0VxIdZFfKujqnI7Xlf3ItrBCKfreew6lu9PB34Tqp+Txp1mgt9vpH/uuJg8+guKaPWWzcuaTtugBRQ1zwzMlncks8qFrvpVTDcQu3KFDQjMuAl5maTDkXi+OevKd942kJ3Uep9twKUPg4dd/xy5a4Hboj4EB2unfoB6OLxC74qTj6CU+LGRsKMzor9gUEG6KmpQdeBtfCRrgekL1AyoK0hoQuVtVJeiv/zaV5dH/kr1R8Gf6OrhXC0nEumnLrnLhec/pPJ/znH7W18zQi+x0gfSEZCjNeXOBSC7744hMPybx3PSvHZa6G7xblG3khU8gHFQJ+3UYDepSWgApD3VBCj1Ai/BaghtWi6KVmn7qnc9+pRwYPn3ZE8MSJRwRPnXiE89cJnwuexvkzE44Mnp2wP92fP/rJorzkHqnGAP1RDrKRSrA6gsE0xoWkZptGLiHDxjqwAGpxd3keSt+InCFBIzs9IJLCgb4+LPPA85Xz8Yv+ebjqI+VQ8cN7o8oCR2XPk2un8gc+x71mU26tbekV4w9q3P8pSsVlID1JepUkYMYMqAepMkVuSO0fQ3V/lid1GqaoKsxikNSXju/Cnk/iXW4nv0LLfceaVgmdRonwW8KIsapbyGL+RCOuPR/4wfNBwF8AXV/QmXgBBfVf0GWfZ4H4Od33qX02KttVM0h4y5ihxVBj6IYQuq5xXdeFqWk4N3DEbbB9kfmctZGCkMfqe1AAXaX7J9I8JDUdQWYJMnsgqY1jno5wLq4HkOYiCKSGmDQoMnBM86UUeIbjOqjv2b7v5ukI51FYiuSIIyQ+Eb6gMVCjngys5tx6kL78+B+Of/5BShNJ+mKbnhrhyJ5XP3z+DZnxPI5Mai/lC9BksxOgUjhR9ecT9qsuldceopSB2wDEvKB53WqejBAwxWkwmgBXualWfKG54MCACjUGBmY7tXuztOvnYN962SCgEy9P5FEE8p08yJzKKguXq4UhIqj2uPCsQwZ0hFCah5IYpI4I7oKgiB9MFpZu6WVWwqyOxc1qyzIqDF3ENHAb9zvSRl3geLbj+A6RHDHr3NASuqVV4N4qVEzlluCmjsqBu4HvguioMED+Nio+VQCK/CY15iGOM68c+89fqwQuWhjUMURWAI1cVC334594Az9/ycpV9m3W9YZqU+CPixekn3VQ6StorH24iEYJ3UWJ8NsCuETLPfkBlEyUcnAK5R1nNIiEhoqH48LZmDGPq2NsUMtHXIrDNMYP0pl+MJ4fzTVrtND0QwIuDhFSHqJJbUwuaPlU3pVXQbjxU9eE88/B8k59j4LK3qqWU4JIAlP7nqkn9ZhRaZggres5XtZJfdCcb3iqMb/+N43ZtT9oyW+aYjupL6NO+DxIdYgrg4Ohro9mAT8Y4Ryad7LHZN2mU1N2w2XN+Q2/bLE3PZZz0u9TZWBqScPQ4tT/z1GxUDaQORCA6MgUkF4GUO89vSW3ydNF8opvH/v012awGQEb266lfeG4sIVeS1wvm9w1NKce+bC5ag8FS+b8PK8x92dJ/q3QdxRVAd21d3Z7lDJuC6BFMfhFi/LO7FO+Y5Qbt/ou1Evo8qSECzipw3itMjXZ4syDTXpub0zxnHdh+trqePJnjbkMtABBg3wLV0JAZad/MP0VIAFhJCAx0IoZpDTLu5lGPPMqVPPn8GVf8Fxn6TottZJ6DwpBdAvUALd6ANvfC/hRUvoToL4fD+LvQcyz/SzZ955q7UeukHYOHceBgDapHUMEbMxvXjjh36Taz1g0vlWSR/kVLDrxW7zGul02OR0PvUWFyi3NkLa/Me1rn66gATmFacuFW0roAkqE3wI2I7zjSCjxnIa78CLCs2anno99cmIx4cNuNiZvnfCeGY01nzstfT6XbJgU0uZSK+S7z7igUawBdHmRgSJ/dtxMnpBzMh6kb6vtS9IcLIc6K2HyaoauoS4A0nYj/BlUY/kPHvCnNMd5cdrDwzapi0UgLYLmwIeDe+rxD3KyaD5AeyxdWs9pUi/dN6++ts3MPMKPTlhc6fvOyUjXNLgTLK1MEPEh620Qn9KtwT8P0yCW91Jva96gzyh7ntUJJfEBVBaqsUM+ekpCVgVv85i2t8z7tMJtm3YNAiKHlLdibKN9NR87/wZS6zkPe0dK6BpKhN8Cigj/LSMmbveln0dRVMWR6xJ0lB5P6gkU0tniuPlT20t4Gg8fLR4Bst9ck0h+jyQiMaejTEdBZzk8bXtZKsiwsZWkJHHu4EwnVV1DTQMVG/5yCeTpfBGIxy6eN/DlMIQQ82rnaY3VteLAd5hc2MFw1+6CKrE1jy/RhpS1nbX3nWP/MQY10beR3skgvgVzgJJOGoVFFUBMr7JybsPtMxefdvn0MXcYdy65rDWPoklMwaKTruUDzJ/JRtW+EdZmRUCeeZDyNAHnY+5nDqRuOvhRllF2ltAFlAi/Bcinp8X4+Jl5b/bJ39cGJW5iDsowtduT/CFHPNrDZHJN7jEQ/rRiwhfPfJt3QfrWykTyO825DK1EQ9e1jhqllbSTqgGQ+rbpFttngZU0q8kuZhm7aTkCfBh6/YMr5v7mX5GkJIQTWBgbUv6qN7F+Yp9LPiL/8oULzeygDS5NJiK/y45ZcKjnyWs1bp5Db4eKizaxiJERIoTJPTd7/Oz/nPN07ah5Zv3SicrEoG42GscQPHfqSOZ5r3FDxGlpbBTKVu0mAjLHVVNpm+3zxNgFs3rDhNodUSL8FhDcOsESVyywvTmnnA81/AYSrrQ2K4OVSjY8SO8zjVWDmHNB+CujiR6kPkcq8Lxp6V9VxpNXtoDseFLgf4HsUbaHxCemk4PiTnY6TX0zy8wqSPwMy3vZhTyQd3u+/cTX7t+ndZcXIvkBB4xk6bX3bxeSdwzJL4fZUpNb5Uf2+QVHPHYa1Pr/NbXy4TmnicYdSE1YhuNl36x/beLBdE8tm6fVs4l+8boEwTMnPcQrzTNk81akfFLXZdr7B/L7S1FlUbhcQidRIvw2QERmqXJT5mKS7V3wLICbKJuxuBet0kJkJ1uZ1Oi501L/XRUvu7olnyEioBIgstNM+FATBb8VyUFwOgagOo1S1RNmJUvZjbDbvbn4OrdfMmfP1g0dSF1fk/qs3lBEsB0DRPwnzdsWnKTaKy4++uHybNb7nS6SU20/jTfzbV1LWo6XvuqhNyb/Yuzwe2KLVlykhspGFaX3zxMv0sqNu2XaJRJTpdm2ZZ/qRvggr3wutIP5MY+/XZLyXUeJ8FtBKzs7ASI7rRY7fgb35k1ruaoiVv4/qXyGGI5ABBVVRXD1TxFdkd3HOUVDfeUsbTfQ+R+l5910yf1Dl4YhQ4Ue+7Q+juHfoo5Xnt1RQP3tS0fV65HKftbBc77NuX4bLVxLFZsf+A3S8z/zxHsXropU+2gtu8KaeEtgq1dJmxrvqGm0LZBzfmGM/TXiuCf/uzTGvusoEX4bAB05u66ubT4Vr1bBZkCHl2z+5dKkqa1zp7V8rcwqvzPrZJXkpgEkEcHxE4W20OrOpIsfZswoh33eTNdmea53/WUP7vU2hUp28uil9fzNUbXdXuiyv0Dj6amJn9T2M0b/+SteIB9lTLMY15jrZW/7y7sXf2fs2Dp90aLrfDlvoohUc/+fJ/1dVBjHyxZnsyWxCIrwCUOTGfd5EP5o5VdkFpSwbZQI3wu4Z9qHsYtm7pufe0HmNMuIPeIHLg03pUKsRURXR3hAvaWtGGVMKzNd32aOn58vpHZd1NpO69dNHzLGb7/c1c6ISIpPOPDuz+Gd/6KLRLXtZRpQQR77t/e+9taYMXcYS5Zc5tJmIDQZKXjmxOt5uXkNCI+8o5V72pZPVYEaQkg3yDERHCaO/cs7pYUvu4ZOjewqYcugdeeI7A9cmPkcCvIDtPWa69kuLHLtk/Hm4fh213OhfmpGXK8003bTK3k/c8alcwefTGSfV/uGSWSn7aZ3BbITFNlHzrcWvHvxy1Brvpx3W5p0UV7j+O7FdH3JkukeaMzl+IFhOfTlEpansQk0ZRY1ZHugBqDRCDyhx1kgjlN+G9aXynAXUMqsHoDWa6d15yDZ9/KkfNzQYnrezeZhmBsh0Quzzgpz0Wg8u+3lMs25jT8IqlZ9YfrcvR4h1Z00hIn1Bzv9vbd8X2DBspNsaqR76v2vLXF99/Sc10wTb75x9N63DQWDQerrOFtWuFmXS6XjpxntUEMafHvQ0GOaXYfrEP7HKL8Ng1AFlDTVzqJE+G6CWsypgY5I70vvCUtPDkrbLTlY5zFXkV1NKpGe57mca1rMqNCbsuse8jk/+LL6oTcRuW+dEKj+c9IQVKC7KKhFfsLIW61nln/7n56XO8/QapLInYsKlxn/eB+l0fCY8TEE/mrqwFSNk+RLTtlCuE43UTMIdX4G7DA5D+o82f8Lx5Ym1HQSJcJ3AyhuKGdh3/eq9xvnJc2KQ5tzmyDZg7hLc8lDVZ5mlwemUWbk3VxDU27jlK/fP+ysb8wdspxa3WnhxysWCHtna5DrLr6wrMEdi/d+7qMrZuWc9TORh1eRDc9oAFF1Y0j4Ix7PQn6vJGpLT9KGPiHhKaejIzR+lsePQO7LBub2gw9jAweVynEnUcqobuDO6eFIsJlTNv0cavqZmzIbaI55DGo7ER1mpufAVtcNLaG15DY96HnswG8/sM+curo6tYPrjEXj/OLhqbsDaGRgOv2uEtIvrbzyQmjhTdq63AX0+7rfjOJqvAMgPRCelgiBw3k7B7+ACE/zfvVy1KyfomdK6DxKhO8i7pkmY5fdyd17Jq+fZGqJ/2rIrKNuNk0tOEHTxgLftbQy03ZzmZzdcum3Hxx+9uUPD9uk1rybMSMId2vZcfvS+xLUIn/ksJvjdC4CNh30nUjnMxZd57dKaVLpA1yBJJcBp3Z5kDx0JOVBekEWE22N43s8JPyG9WpEkzovYasoEb4LoDXjL5rJ83efs/YQEPyPNPQVBPegygvXd10/8HhcrzJT+cbnZeAd/q0H9/kDSXQ1NbSHU1R3Fbyw8vu5UaPqzBdXXfkk1Po3jhp24+eoAlz7733UQBvpBRsYbcSlyA2PUI1XjmbMwx8VAfVzkpXPR9IzbNwin9W1GytRQocoEb6ToC4zGlhzx/RVCZf7c3Utbtle3kbZ06HK29TdBj/RlF93y3ceGnH05Q/v/27Y+s6CHWsYbP9j9NLRRGFa0Os3kmuj6Pz9NY1hWfS1Rlr/RtKG00Vkb+M8aEi03ocnh+OX6q1DoCXCdwIlwncC1HUWdZkFm4I/xM3qT6fzTbTem+V6nqOB/HkvZ+e99MQrHx75PbqPWuDD1vfdU33fGmgEHk2gWfzR9z7QNf42qtPEMT+8O1zuS8o0Q06rHeYVwUN7fjMHfQnq/RCaT6+eG7geniVsCyXCdwYLwyWafnPWiiviZtWkxuw6WtfNIHXeMsrNTL7pHU+6h373of3qIxWeWuDVsyV0CCI9Hdfq4lXG0pItCW1w6fI8qfQR2dXCVwXXeh5IzmhOYcAHSNeohE8JnUS/14rUxVVfy8TA9Yy/e9ASpId2d+hfUAoeG8LUppHR6Ldbzv7gCwYzXvBV/zqp8NKKo6yl7YbHMjHvHLLRqWFuaDWtT7+kEEoJ28KBQ5hcOIMF190zzqQFR9z6U07UdTE/8Gj+IApHu+G1BbiaLgzf87O+DI60zn3y9WDuOXHe9GEvmk74fquH+P01Tj/cAGWNFpal3gDe58B3UFP2A8KJIUwvGyx5ei33on3GdzREq9bcccriRFarWmrqyeE5N5XhTCRpmam8k77pR0986gd0b0j2vNwVR8ttD0QrDLlzQHhDzPdpJj0NsikQnv6QbVQ4eppa3loyIYLD+MT50BL6BnV1jJYr266kp5GDql2iD7BdCU/q7sAEM8bNZLYaSVUEGpNuJFgi8NOmr7WbC70dIUXg65pm5TN+fuqcio3kd/Np796XMGvOTeU3poQwyqmR2A2cb17zxOjf0XVajKLhCwe4pBH8eerGinIrXpbltC0LPlsJW4QFynp5Lhpsz7705NOzivB/Pu003eKP0BSjAIxGOdksD2mcHfyFrsPM99lEoZuPM5aryWaV0t8jJCxNctvnGd3nyezwjfwyWhq77wjYHoiEXliqnXY2xWuyni0pTVmkqXBLt5GE2y4FktT2JwvTRwtebM4FTfuDWEdJqR2O6wcKxgfjzkrcbKEu6C/C+/i2SWTKJjewa6f8qea1G095+5uWUfGbjN2U1fVYwnazrmDyrP968pDHqQLLJJYb0dDYedNSk5ClP8cni6Oapman7ZK/OytAJBpGU4m//6g9pewcPpH59p8mTjJNe45rk3hHwdlKGQ2ZITfhJmrwo33xe05KCoEWH2JsABPsNuuCx65WO97U1gd9TfpoTgDFY//p1BlcStIe18GHVlPsOlRqlRZPLR57oDj+rTvBdAk01pzGnNM59WOnW7KT8QKTEPGRlpGoNAqjoGnkBF44dKFXn4Feun0cqHSoxNB4DtaUTX1t0p8q7rr59LcOcbzgJUgaSxcxbnuZRtzzlWuf/MziyyHVTzxgpNremZ6nhSpjeuJ7UDWZj5chkdDb6CjdfYXtERdpSuWWYJsy2X9OnJkcS3723edcasa83zt54hzSsZVKE2VFmiatHNbLeU1Rx3XmpOx0wLRD4hc9svyNulrz4Bl9Ow23dY2/uefEvWz+NaM6PlK22IzrPZB/yBrpoF4dEGfuhsy1vZxTn4C0sfqJTET2ef20zHcgua+M6ckR9H1cmi7q23QfKb5FNlKfJakdqDxRXIUjJHLcTMazTurqiTMrbqA7rj/x9ecMLX4UNdQ5Xm6VJtyxP17wuffrxn4YG3rQCJ9G3D06vWWPvKM9UGEljkvZatELqgAK0iaKo4S2oHxRfwOUh1jOzc4+d2ZyKvk5fzj9+0ZM3OTkyIhH5m2F8OrrSdVrj/KDX8ojulB0JGzrvNiPTjh3zKRZ5mScn1uXPnbt9pDyEeHdu089Xhfi77brO3h96pPQUJraxkvpJUS+HbxHwR7yUCYtlMe8qYnRfaI6U7cUFXgi+/3TssfMuzDzRnkscaupxUfkvIzMuhkfZKeEkEoHmUqrm0ROrQ27HVwYF22YgKOsiCfjGSczNyL7zyb856e6iB/lgex5L/2u4YkxRPabz/kozsaNcIjs9Rdmj7ZtbWk5yE5r19H74L0pc2nUWGscJdfehd8ahdgk4YWi0gJ/BekGe9CIHLLG1XDa4r73dg5GE3XN6bjfxNGEX8fHzpwX+cGiNBG/qSbp+PyS1G/PHKRm5dXX9pmpCY5yqlDoPPDYacxCFvki4JLHuI/yFKU3cpTebbwHnjbIsLQSMQH/f3FoKr3+AounSyMaWQY19xrTiD2bMBKjU/msCylZkORqT3CqFGgiJL5a/4CEB0iaT5gJqyWXfWPp8g0Xkv/PJrxxLDSQq0nA5JzUq46RPfKaf3xm3Z/OW5P8/v375Khxrn5a+mua0P8Fs2RgKp+hNdjU+6iAS+gEkPP0V50Ha9UBkEGwp+pr93CJZsbR+XZ2NKQXJDPtnG+jaAw2mD8NV1g97czRVyDGoziuuuOUBHP5qYy2JwikaD+8uCsOFQe1RgjSgXCuNvjs1QJKZD8Cko/O501Lz65JJK+3vZzMObRMMzU89C/Bi0Fkhw3pasKIZeyMDUk+ccaiffMkwR3P/nW5taeeym98ES8z7oYnvth412kbyi+4d0iGnoVkv6UslryTFme0XSK7Wri6hK4D+irZP2Jl4TeIxgbTSLtokI2S9P3gQtJAKc6CLR77VnDjl5MT6+t91FJ9Un7rJ4baQ40tjjYNfT/IEB/GLiR0x+nbllN550nP4pqZb3FaGNfVNt69RnhS40OySz73gtST1Ynk5KZcNo/fUHPVbmyFO3cMgOykbWiWjnpIyEsn/7niLfJvaFx7TWV82JiNmY9f9Ln21V/87YjmW6durLj00YGpO05ZlZg3LfNERSz+XUh1D4T38PAO9247AyjHoBFx13dBeO9j8ltctyoBFXQISSSopCThUXBD9b1vXBR+cTx0jvSpozDzWd+2EtZw2wzbGNh1fbPYRi3t7QXwgJ3FBKLwuQeVvEjDaZ/mLbnwfmXu+AgN5RvHhfFvPvgBrvQO4aGc8UiNByHur0mWTWjKZnK4AEMk2nxhxwHSI1HWvMp4UmSc7O9r7ym/l/z/64TFR1pG9TVrU++/yYQekn3CuxVXzNqjZd75DftU71H1UkUscVJzLqMa5gRuCotuCd0BLV3nB27O5FlF+H3L7x6AggoJjzxtV4D7xkXhF8cTxVvwC5DIHE48eSV+MRR0Vc57E3hbTm0ENPiIBeyUUJ1neljpFKWl9Xd03pEL75e0MHLADOZQOwR7FFeYvGN6uMF5T0Gt8ep4YeYXkOxnNeUytPdXjFT4HZEQkB1e3EiYLfnsW41m03fJjyot27MfbMyv3ehK+1gi+y9Oe6v8igUHttRfnDkCusC/y8zE6JY8yM5VY5/Y0SqynQnU6kw73+Kw7sBhr64iv5i3bC8Qfg+1ri/U6WIVtb8cych8zndjpvGp7C9Pn0LplHW11PjYe7hjjFr8I7+hYpylGXvncp4P0modpaezDiT3Y0IX+bS3Ubr+Xyl8trqx541Md8Bup9b4+ovSpyTMxA+hxvv4iiDEjmGrbwZqSReakffyLBD8ksvu3CtL3leOe/Z2P/AG29I75NZF45tu/PKryR89+ulU/fnpU1D4XozpiQHQBmi9dCtshyiRvUeAENLV/hx82YEzTlKt9Dxo3D+u6bpLw0T6qcGuvVMr7VDDl9I65Pfhy9iMevrVa+X7zdX7qbCkLyaS0s0DVDMdpKUrjlrnYW6SprAwcdXjH4VtD6O8HhGeNk0M+6JlAgHf4fkk8yjoHbq12i8zY8T7n557d+J58rjimKfHBb5/iR24n/3tovFrbz7nufgP/vrZzNxpLZeYZvwxQ7MENc7h1t6t2XdjoJRI4jtE/euhD/yCYBRjGkkojwpse6nVX46kbTbrybhmHJ65/ozTVW1fN3azvey7A5okQwN6ghvPS4JDEwKYD4izR9IdjioMncbXeQF/REV03TSLJgL1iJhPNkjVOp230z8pjyWH2l7WQ7Wy2c6f/Q/qAaLPJN24mTRa8ulXav+YrKMr1NiI/LnR9b1Jv3v2hNcunzDf+v79R+fmXpD+UZlVfpcbOMzznbCXoYTeAz6HWpeK+/8u+FBX2MGwmWkYDWQcNVjRTQVXfN4T11GYHYVNfm0cSESjVH2mTEB23SJbzWjrIZazhUqIOLnUl+NCH0JLqiA+6jdvF3/BtU9v++twILy0hMZyeX+tdLwFKqKhFqqCHjTakSpPw0rnTUsPxqeannNpg9TeavVHSL3owrGXAU65Qa3CUvpfxwWFda5/jRcEf/7d8yc8PH3MYoM2RJw3LXVDZTx5Q9bJ0FgaD+Z6geybh717up5CQkcWesbOyBj31Ey3prq6Gqi0n1aNTNQs1l5qUZ9K4XyzawVX7N/+ntbfReHQefGxzTPF18JzbkP66oyPS9WddgKqI1RXIVl7ghFDD6KYmeexs6HzIA2Senvbxl3sCv5t3qH4GhxdE6QpufLpihmPb5TTpxs0CYji6TZBTXu56p7AW58fN5LVjpenHdM4jY/ukQvwN/DcHjnpO8XnPm3vFMhUuZVgtm/fdO6fql6itE//3FNHQJVP/d/zX/5f+n3nkiPcuRe03Bw3yn7UnEvl/UDmaScZ2PYIj8LoIPyuuHbp2syvs25bz2zpenfiau9UGOordfz9tukgwPC4Liw6X3aw/6jahsJw39gPavy+jk0qLReq4BYKduSiwhwd27ti//b3bO3aFv2L4ofGIfD2rqmB8p74Fnxp9c0eSfmIiE1XnVwNaT0+QGWn0kDxtnv39q7Ddyg8R/nHXGj1kt8PH7Z8yDutXYndqq5pllg0Rn72eU3Pxc2Ko7JOC42JL1LnKWhUB5sdCcXnEajKVDU/T1rlBb+eg2JCSWVlpmAb0s2rDds+aGL9num6UxYnVq1b/9VyLbXglhfOzdHvAypHzhpWXXlGU7jYEtPwcPtU7u6g5sqsk2M+eB+21Wztm3YEylRpl8cqrZZ8071T760+n3zTV5/2tWQsdmcm59BqdTQHiVNoUah07G1sK3zyj6Dug0msa1x3adVSFhydvOHRF6nFnndzUo2smxbjM2bms1edWWsZYl7eQ2UXziBsrUS29t7F6W5NK563dCEcz18Td8sPEDffmynecHNr4W0RNP/7igUH2rOmbBgTcO05TRimH7ikiHXbfieya1zjqPzzKEjXwFxq1Bg3oOAU53vXgboNggWVk0Qtwp85f1a1shkv/fz8YYYZZH737CmN9PtP5zXui1w+Gyp8E8oxySJNBKJnce9CCGgUiBSB5IEBJl6la9Y+nm+jEHW9gRbf2qmwasyUvemS82ftcTf5ZX54xj2JROzCdDafB9dj6sYdECgQdlnCtLJZ54/JXz6kds8pJlRnQQtrXMfqGD2X/uEZ9yZj5tR0DhyiiTLd5CUBeeuWxS0jnXX+UH7jQ5e2n+XXjYAlf7qwD/o9kzf+uMyq+mnabiSyt01o6xlOVJtZdPzEL2IT9eDBWHbKUAgyTkP9hbMHqvXK+wK02g6Nha9jdYI2R6D3oXQUBEoJncA9Uza8GNfLPp9z0z6+nUaj4ls/9xag8lh95yAQXEfN4fsJYY8+d9awdzb84Afl8WDZy0lTPyjteDZus1oLxw4H6RpCM5zAdyBMD6u4+dGlsm6s3tUBOUqdv/NON3X1qXsyW/930tSGZlzPRTnsUeMwWOWXmYaWtr2vlP/qob+2T9u2vtNmiNR52lstJcY+mzArj8w6zTQYpfsfiVIhmYuwjIzddOal8wY/TBs+jFjOvHCdu57hwCFj5LtrGK9urA+iLaIKCGNWfyS/c/qSHbCHof+x+p2UHHrQgSaNWfj9xHXHmLrxrBfQKOrCDZ1FWOnb+M5Wzml+8aL79jyK6oDmKyceaXL/eVpHACTyUei1HZXvVGCQzHw57I9MNve/Zb9++ApV3+ECvV1417bxRi0kb329k7ryzElJXZ8DslO9SWv4datNQKULZE/oupbz/OVl2YEHUoVSuNSaLvrRJUSLOt4xcfXn8PALQqC2DjzUINQd153PpNID28jSPd/ZwAP3U1+7f5+G8FoJOwpoCTJU9M6dtat/kbCqfphxmqgTqIvjylU7Tb4yNjDWkt/4s+nzhvyEfFu+fdZV5Unrf9JZm1YO2mHV+QggpmdqQnd8PwO19lPJ2x5a2RW1vvjelsvPnFUet6aksk6o2XQTxCJURHZ5wrJSWfvXFbc/eKWsrdV4fX2xgOtqbSL56iFjVAC+DCbEzWrheo6Nc92XPvl1y3moMQwtQVs2LQzJTh2eXa+MSugbFLQ6h8whT/qn2F6OWto7/JZbc17gQ4gHsZTdSGMbwuGeAA/YBBrJJsmCJSOLStgO6ihtQjLdcf18eSyWRDZchitsYWEp884hvDf9zdrBzGPH+3kESstcdOPdo/sDGt/qS8PPQ/YGwQPwZWzUqM0kcJdI1Wr/4jjw9RUvJsyqI7JOSx41U4z0kc0Qhb5twa/s91S+8eLLH9rnniiewrVdBRzEEW+uX8hHDxrXHVWoDaJwaGcbBN3j8LYG2kGH1u277eyPx2mMP00fFMSl79PpQl5op7HjRrmVddNvViYavnDBvZ/NrL/ssgMsvv5NjQuDuutwn9ocfkev7lE9+abQNNf3G/xYsH/1rY80kWpPr1m4ZYuIJG/T18+cVGmac1ps1eCt4dluvTU9hLjtclO3Whz3zQo58DBS55EQBNk2PV2KICLibWevOIJL/jJJdWqFQbDdsjtCSE8Tpu77Tl6K4DPffXDke7W187T6trb2Tg7SWPqOlKHp13fh0yArGkJ96xkf3powK76TcZpppDa+OZWnzgMJtMutGitlN9z43Yf2/SH5NV1a+63KuH57Sy7vCM7NjuTGjgjFJCkdSHkzlbOvrvjDgzeAyCaIvNUuOrxeKwmbLz3zvop47NxULp9DTRHv9ruHackjrFg65/y8/K4HrlXjA2bMoILXJtQufbCI8Lec8d5Py6yBP07lN0C6i0+ke1dCU2+uWm3z0BRiOaflX4mVjeNXL3nMZ2MvNIcetAmE376bOaxufFO9AW0msfqdhZItWhiELfndR5RnNJc+o2W/i9cux1tTm0fhju5BkVxynTPvnisf/fQ7tN98X2xBfceYxcZlS45waTKRlihbYunJg2yPFjRhNNUtxNZehe6h67B7BRc6/UR5Oe57j+z/DF1uvujsf1RYxvgW26FVg4woyJ0CKLwxTRN5319VEZSP5DNn5rdly0fXU5dM2lMGzlumplXbvh++e5RXXQDdHkjpQz3Af7WA6pGV9zzwYkf2O6Fbpe6mU9953TLKDs67GQdxmCh8yp80kvC8cyVAQZI6P8BM2w1X/eCxA38Reu4YILLCODOHpst9KvQF7y4hUodvOu290ypjgx4JR5v5qrLrLqiCNTSLNefWwn4Lhn3/iYNWRcQs3NJriMZc3HjK2ydqmjkfZYvU+bA7LvqGrd+z+J2ia4Vyge8cN8rMnJtaPNp9/9iTFpxkbzz/G5/W+bo3INkFGKLUoMIjfQ7kYWg+9BDIAx9qudZsO5dX/enB2+W0aTEifuHyZmhV56edM7XSMu5ttm1aqLJHQ3SRtzbCInX+pYqsOJrC7zHhqRuOurRuOHXpkQaPPU+DLvCF6PmefCT6yL6pJfW8l54dcHYnD4Jw//B+6JmRgrtSuikjEOuHJ+WaiUVbPFPBH1J+QBd3yZG8bizTSPLecMpbM00tfoHjZrN4aRqz0HnQzcgNRanw3Df1eML2cndc/cSor6u95/tgO2oaq0BH0nL+55S3fltmVn8jYzc6SE/XCqhSAXkQNyu0rJO+5uonDvpv8m6ZevZ/lcfMnzfnnXajNPsWhaxUQHZ26VO0BxE+qeta1vXfqnDEIVsjGyGS8E1Tz36oMmaegXe3BWdWa4K6CPUuUnqVMctAWD+pmvXAzyh+Vl9PU2s2C7bTLxtJkJ+f+Mb1yVjNNfThlXTvbkrbQEqQAUZoON46rEc6BkUXXY0kTKhZhAivRXeFR7qvfZgdhUPlEtKXOpib8fNj+L8GOfBXozz++FX1+5Nfaz7Q+bYQ2b51pyzewwxir5h6YpjjZSEdaQ2j7qDwPjKQUK153k9PuPaJQ/7SZ4Qf+zTMhPFe3emvVFmuuRjp39/20vjuoovfXfq6MDUvcDNmYH/+BwsOX8pqpdakn70koRuHZlyP5sb1WNp2AZL0XxrEidcoLgpdBxVaFC6Qnmc9f1rlnPv/tCUpj+hIsZOpSZP29LmzTOdamasaKrvf944wPUMTuusHLhPiqKrZ9UtA+C22JXQ6otWnhN1xIOTRjpenLjShumZocgnUvG656Fm8M8yDwEa4NJvN8Z0tOrfNudt6P/l/ci0KI7q2eZgdheMHZAJzQ3BzD0NLHBbTK6YZunWv05J546cTXqsjYhHZaVYd5cW2kP/oPZW/um99CWEOwzvSO3MP8Xg+XHTcmiu+B/mFo4+weNZJfeimN/6dwp9RP7rXVfliaI5+rBDm/lmnReJb6Z365nRPqwugsRl0/JsiO9AoJ481pHZozkaxoiJfNL2zrxySJQXNCAfbXI9dR0nDec/iDjitLOtRuJBV36B3I7I/PXbs5hrLZdOVnyf9Eyu1WJnrBq7A8x2G2wknlWMyAeUIx5eI7CoeXC0cN0OnCI96EFoID6igI7EjHM9mgSI82XNwdFQOErr1GLni3+2ukT1LfjjSigdUmD3f7TcX/kO142bcrN3spPKNLpFUCGOYpZdfx1vct2Z8dclRNKuOpB9yBjnfMcj+J9uXzvFWp6sC73sO3lWE71zIi4JNHx6LXXRP4RjdH/ieRjPNAv8hkr5h5dP7LfTqmxfWKUS6z9A4xRnAjpPhd2//Ldv8LqQXDuSn+Z6aQ5uOMG+mChzg0j6fCmqAD4/i2eeLXSgKeMxNciKHfLtm3v0z4PfXSs1k0pMOXd/icwW3lesilXdZTGpHNp511hnwYeMGDdqMWwvfeSf8Tp6sRZyqousozM46ZDOMu2ixDPk4Bf3uhAnWlswJQqcIfx27ThXs/fdKxvBBEzSs0kOhDGvy4sEV9IEjf/Wxi/zJr+hc/f7ED4Wco6ho/e2QXh1HAykyA0l7wHtB3sv4abvB1URsv4Bpz/34qy+frlTdsQu3qJqveXyJunb9ya/shbf8ku1lqVLDu+J96Z2VK8qD6Lw1byhfiu5V5x7KiW/k3RRIGKipj437fdCjXoQt4bq6UM2t+8pzNfg2J+UQJ+IWrWlTaYrSGqW36LzV+RIaCcu5mbd/Uv7fT1CYDbXT95GedmrORYmlorkdnIoHH1ZIQQttqBXmIWNucNT6eUxHsok8HT4XuS1dB3E1PG9bNPAw4N+EDyOVWtnSBZDEH79okbfxzDOH4blxadujZxVZ24fZaQcSGkwTTXknLzl/DD5sJP3ZCjpLeFUzrXQ+dFDoqJYvfFg4pLj1vNh15N/ej35v6fkdwYFkKOwCDhWBb+ScFptsVxSUh3/8pZc+R6SnUWgqk9phSFlK5Vku75xgiuQgaArgaCfU4da42x5JcuJ5VxcxkXezb4pjH32Rwq+vn9gnhF+6tF4R3g/0caaWHEJaD9JgbJa+6Lw4vVGawworoPY4X3p3RXYlz22YCMk6IO/QtHpSabdMqJ66KFzSJKB2xxqzeR8f82H4spqH71+Utb1Hq/WY4D7Lc6S02+nwpN6Uc5jF9C83njZxPHwYW7++VQMcwUYodZ77+ikVwki4HvKloNl0GN42XPScRcXP5y8MeOCBN1HgOP/CF7Zq3nWK8BzpIhWVVoNBpbKcHgMZgk9q8d3BUQFmlu3mcppI0Bz7O5DtPGy1b6vaq5l4BXUY3/UM2vQY5c2lyqPjsLfh8HWV/Q4LmqQlzh+ZMWOGGvGIKFTF0tsYVU/lhzHXD2rx3vS9aVgsD9PTLn0dOdwDQwkUEnrabmwYqW/6E4W3+JS6BBSp81VzCWxfSFsUemRfq03auy6yd0Fmt0JAfff5ovLHHniT0kKAAvILkra4J+67yOiiZ7vieCBIWufiNDzBl9+msDkkOpGQ3MuDsoqI3GNnSg9p8jjtL9zt98ZzYcdieP4Qhc3GhuvWqfMtoFOEJ0QqKgyyv9OcCdDdDz98Ua2+SzsaCw7KMRnPOI22oZcd9oPjnz+H8qS2tm0+Lq0dja/A2PfH/2s4KsgvZd0WktBkLnQQbmecGodO4jCWcZpQSH1lr0VSuLeh7Hc2I7jqSy8OQPwTKP34ztR+00HaOnYk3eFcXaP1Tf27Lllw0gYKe6T35skJbnym2XZRYEn0w7OPHYqosnXpHOxT5JBjpquG1wHzH3gO0ra+SrNoTL9b/FxXHF6ZnNWYs2Ef8LPWf3Xi4bgC7biOo4AYtGtN08ln7YfK4GgyZVTbftHzXXUUnx4I0WI7Oe4Lte78knS4bt3W0GnCD6ERcIDkwayUvRG8Z5aHGjwk/W7iqJ0BR7x12NLu+WqdcijW4aEdUCl+xdLLy20v7+DZgjrcQbidcAgL6jwt0ZV/3U60qEU8Ro2q7RPpftmYcJqw7TpfNbSyKsfP0yIvWkfp2pLzSB4wbqXym+wKL/1/KmDA99jXDVJMAmnTslEoPuF6bH3pYE+YTDMack5Kc42/UDqoOTsiPerSmzflbKlJEaOkdxhGJ1z4PjJfDi1MC+QVFPZ1FE8qpSpmzxYnlXGjzIauB8LyjsLotMMHSagGSP5M9V/mLqf2giOWhOvWbQ2dJjzV+KRC3vT0se/DGL0pplcRAWwUYuqqwUemwrzrOyI6SWtqhMPvMdPGPh0Lx/1/otZH8wAgiWtRKdL9MIB6mkf0lQXCkvPJtAp7TvpGnY/aH8CTSfS+nxC5o3Rt7tS7St8xRRl+e3f9+JmvfkjhNY4/53iovMeDeLRJuFlQTbeDEzIhSdVmiyr/Nuc9SsuYU4b41y0Z4tNAmD3++sCLIOu95TSeyGNIG2kEHYWzdafUbY9bjXmHBk+fv/6Esw7g4A1fENrViONUTXUL4m4YZ+2f75QjcyA8l5oP09qT8yhsoMO2pPboNOEVZlB9BfV+yPqrm/Nr/wXSx/GBbRQKTxUIVD3KtRaQXdCpd/QF9d/jfEDM9gdQntRFrdqF0WmXH/33/T0pj8+6zWR7h+pwR+Fty6n8RBXLpEXqvB84atnhUAr3fnccTVyi9odvHf3UUBjtx+fcNMUfNjZ2lL72DumF7Q7blceb7Y02qki1QCjB98X34hLJ9lgo3WE6k8NvdYzOI9f+95ZcR89FflJ1JzHD8aBDF9ZoV11XsHVJiMkXX1RS3vHZLxvyjm1IzQCZgiiMYtc+juLzyCEOjjrSGSBiXHM1taQ1kb75S+ceiMrg6BwiUqQt3N8+rPbhbfYbjyN8CXVeR8WSxkGZd6x+FF3dJrpEeCXlxz6tkwRrcu2TUvaGf5p6RQyvRPPhSdrTCrEk8yMbro2jwtCRf7Hb2j3RteJje7/25+FvFNbeclTwcVR9zIEnhBFu5tFqT48dp35Drp9u6uUaJDzEWdh3vVlYnXHqucAX3GJO4Lxh+knVOh9J4d7G4NRnlTrvcXGqrsWTHj4p4ucdpq0jRxJeBh6ZH/h912+e/fK7FN66YyYfG2fayRvtPPRZbuFWlNzQ4RO1OY9c+99bch091+oH8lpM4ynb3SiZoSrLAz4qb807sWCBLUfVmkMWzXsDCf9jAoKyOG3Frn0cxeet9+BZ+BlNDqS8zy9q/OI5++IK1HlGrfNleRf0QHkoDqM4rOh3a3gd/3bLhUHa3lOD/3HfOjWUF9zElW2iaxIeoNqfBnvMeumklv977stjM/lNv3R9xzFEmSWYaaoPHvh53/fysHVJ+qNy9eE8qgyUo9/Fx2KHZzfzi1xH1yK/jq4VxQstE+RXaaNjd134PEJTs8FxTOl2oIbczquvVRk+Y9E4Ki5U8Gs/GZGo8qQonM64KC7QJqAmWXznwH/qlheOzoVSOIyndyH52vJXlaSQnndOwRwpSs/W3qE1vS7jWiyd35S2fXmrChYQvnd1LOxC8gTs16jxaTs41C4o5lDn91g0a6XqG19a39bWjVerCkD4xv80225Wl2pftw775TvjqLvNd6U3QFhx5MZ0+CI/g9OFUsVVz4Tqiuy+o24fpNdjc/GrS+gy4Qk00iwaXnrnixN+hBQckXWafpv3MqsEN4WhVcR0vTymi5gFyWQKbsCZ6sjVedtjV922ni++TvFCoggQn9o52kqjLrvoeZRu2vmU+e/fhoqPiKK6LtXoOy4vPuKxg1GNH5n3UqiMi1cDisLpjAvvB4lo2IORo5ZyP5hPeT44VdY36vyoeoO0t0uOfGQkNOGjbV8NFipId0rP1t6h0IuBI/KdWr7u/OOLX1H28vojJo+F7X7SpryDALiJ3AslYR87xEMj3TXXBXejrqv1CQO0a5N3fMmd7rsjJ1g1z89eAbX5jgqy5UFMspU7CrczDnGLLNR3GYiJGz4/cTyUpNE2DfJB9nQc7rbjoueordgKdKPBdjbmfFcNraaJMurYCXSL8AQi/VgU8Olj7jB+/8LJr//hpRO/JR12mO2mT8u6jddn7caHsk7L4rybXpZ3Myv6w9luZjkqoRXQQGjADIfELzQw9tApkxqE9+UiyouxhRF3Daty6oiLZ2s8Ti3VYdtGDxylmTEQyHffTGXSag55TS5On7/XkRg4MDRHPHGKJmIJ5BsIDMJ3kK4tOBRJ3cg4zRtN4f9KBUoIvDrYnGTf4ib8xl3bxzFp4jtlXX99TAueDBOzvENb94BlYcMavt0vG2w7g/QayHqkt6NwO+Fgy9MmsCDqCPz+A7KxEiovXWu3DXTkOvJr5/A48tClXgCEP3/Yyw9vQuHAhc6jSzd3DMlJMoxa+qZHNn7BswDJp495LI4qqVMtiL0NPyO1mf85s+m8MY9cYojYXa6fpymD9NbdruhoSh3qDqkLE3aYc9TMf5/+Qh2T4jp62YLUPf/wR17RtdhnXT9HQyN6GBeTll4mHC/9yz//+4wfTRg531qw7CQ1Rr83UbzKENL/D0NPjHe9jMd4p/cKpKlnAdKq5fzMtbOWnPZz8txw2DmnxYX1SBY6LjK+kP3Rn14C5XoUHmUYDhQTMs+v0k2tyXNmDXp17nlvwFY/eOmWV6RZPGa6QV1bGw6d9PM9TOu/Nrg5W3Bu0cCjzdJcHGcxyJ8Qxq9+mUJw2gwFP0JVsKPwtgJ1P+6FqkdlLKjQDC3lu2cMfHXuI8p+38rY+fboZJTbBnUTjYOkGzRog6RRWpuTv/8w+bAHr4npldfbXjMRpd3KoJQF9F2i49ag7nEMLWE6fvb1A1/5z2ej97wcRLwNRJx6+ANHMqapXWlpGisO3c5jVCwBLQ5BtMfxyHv/fcaLUTyFW3oNUUUy5fCHDkHELwquxwNJa611djVi7mtqCqy9fJzYMPqyJZdl8Rxf95lJi8uFfnja92iJys5WHr0C5FtQphkiGwSnDXxtzmPUOMe3Qngqw8THls+eMzDna+9ZQlTaQdCjufoq58Ixcd2v+AtAMXDKNN1EXn5kMe2zVa/Pbuw3wrdF2CddV5h00x+g0W4ksaYNvyeWrypfAok1ChLLZlyA8J0pwB0DmZ6PG5Ux223+2X3/Oecn0YYWEWEmHXr/jYae/H+2l6aPTO/f/TyAhIKmoHl+7t9z/1Or1vv6ZAON3gWZZncuucw999AHfmTqiRscL0NDQ1BI1TtsDWGlJqVn6mW67aXOm/efibPowvpRtV8r12J3ttCeDapQ9LzQdxYgbxDjmsjLYNWgjDWSr5iZRyLoZbb68SXyl1q813160oxBRuwn673cDrMTDt7J3kOPWRvd/B17vjX36/Q+NJKvK+Wh3wjZ1yA1ewYk5NmHzPkiSPNPPwgLHVw3Cx2VaVraSai1w6C9fuH+/5z7Ui2bp60fO5AvWjTeqx01zwy04BVDi4/yaL3gHkm0MD5LL9ccL/Xj+1+fdP32UOfPOWTuMyDusY6fRjy8E5Uj5YV0TC1p2l5m4YOvn6smjqw4ZEp1zA3+neT6iHTgqjXbthlUL0GxGtKwRrfMBh/keHvu1yN1vXDLFiEZdXHV+2sPnrQnd9lrMaENygd+Ly720j0gah81kWagzsx58uSh782ZTyMFqcGxcEunsN1q3P6CL9mZtL6/HwS2r/rD2zQydd5Jn2woV6Cy9wJv8YaqQeHwVvamjEeNdZr/Rajhoxw/H7ZudxROpx21GDEt57ZIL5BqnfHcXn3TWPfBB42qHJx5yH2HI9Yj855aqEODa5emjhz+BgGRncV890oVIBDP+T+okdaIjOM5zIdZQE1llPrt4NQgFZ9ptotv5nA1Em3MksZOSsF62GG12uA37lsnfXl7ItBVeDTYpaO4tpfjHvOTSIvtBu+mpXgWvmp4cFexqxIeag4PlMQN/NOpMKJgdm6lli258FnY0/j4QfAESfRoVF35YWnV8uv5wWk0QMbzXXA0COeOd8spIvmCmTh6zz385uS3KC6Kk+LpXUh+ypLVVKworpN0kdS9oHhzkS07NagJ0s/QymnFoBtnLz1P7fW+af9Jo32f/6DZdZFXTNDoM6q9todj4RRXNyl1LeV672+K+YockNp0dZsg5WDJmGr1XWVg3LHJsVclmY4PwfAybePajg7KHhM6tX177KkDl81qeZqN1ccsubPL5WFbhKf338kc42PG3KFU6Zy0v8i5uZ/tZ2m0WOeHh3bkfB8k5mbWbQrcwFddPI+PGaotHDtOkDp82kF3lUOqT6ClszwabUjTnTsKp1OOxuzTmSCtQkmopaNGF8yDjt65+66W1as2ATJNEO9pbgCBHASd6L6UpOnYnFuxjNPw/t6s6adh+hiDAn/jABbTPV/mRLClbqi+cngrfGYaO4/fD1OrPNnlSEGnFXJS/alFf8gH9673A/5bIhoUNo3GP20e33ZxgQiE3oIKlAVCDQ8eMXyEjitdNjK2SHgqAJAqCJO6mnYmx+R+S6pRLyKfAm8i7Tgf8o8KKRG+u66wkEPgv/y5t95/mcIvK1st0+l3kUeMOUJ8Edl5IE2qgeQrqMPddtS8b+bUCrHhYg31S2sLtlpH79x9RyYJhZr6dO4zyKvPqdV0Al+NmNy682hBD9znMSfwrvzt0m+nKZy1wyZPrWbWiQ2OTctGxUOybz+nLKGAW0SOwPXDwTbdwOjC6Lu45v2m2XE+SkhNI7W6fXzbw5FJEUOl43ty6Z4Dy9TYjxErOh5PsC10SHgiez2b6PdFa/D2AKV9wsj/298LglrbS5P6udWpqWFlsDWHECTZtLhX+k9SvkCLMMYtYsGSJZcpIqL0nw6O4l4vHxK+o3DaxhWdt/FDeUV8rmAxfGv/8ceXTvtIvZQiaO8j+saB515Cq08jbluZI0Vp6tDJwNN4guf97My/vnOxWl5p6dDzB0hP3ppx1fJNrSvZbC9XIIdbERg87/r/WTO06iVKV3dAjWEfDp8Wq/mgvhn17206DCwUA4F4aGprh/H3kVNtB2pmXMCejEYFcta17akjKOlUjKjbh+zfjXbjdzjnX0KUcZS3sJuyN6EaeDdPQ5dB4RBUWBQc1Ynss0LoA4KApklt03TZOvCJBdc1EMGFXn3UU+9/bcmEkbdaX1jW4FJefWXU72s8R76qcWtvP8iHyzgXktQt4BNrwtBgS7+Gt3kdIVn4Dr1OeDWOg3GauzVEcDEW1Y3yhqNM3DIkd5E+IwicVS2GdejLb0/bRN5rBk2aWSNiFzQEtLkCMym0rQfU+8A72XtoMWuT7/xsyIbZPwnV+c23XOoMohb7YOTl1rrmDe9YQh+el7SKz/bsXqRJ0dTxwJnL5NHD1s95ngh/4LIF3eqtafc9VAGQo0bVmYPygxdYevX4QHap1X8HAYd9mYe0dGEBca3tt95SESwu59H99FtR19dFDFI7//zCD75xNF0hLYjUYSL82P3vOMPgsYe8IEtLGqGQqI6hwvPF6MivPcJ7EGugC0toIqZabLb9XPdAoUJeM8/PUMTk00FEUbrVLeqPJiyeku6ZL71/mTI51g6YdFqMm49kpItCtKX372tIT2NCV0JR8qP2bpj1wmI23TiCda3rqhhEdrHsNnvNgCnfquTm7Y3S9gTjelih9/37UTlIcl1kpf/a0E2zDyW/nozFaJNikloLll1hf3HE7T82jZqf2l5jDhGq2qXwnQuIfrf33xqK7+3onI6ErZ0XoziMYkRqA+271vORXYiBIpG6iAtf5r7xzAff+r+xw++JLVpxUR7eiIJL5NefDb3iPMdvyUOZiHWcrq5CvQdpKi59g9CvbxB+X2gRYaZuBbgMLcfQy42cl77r+eXf+hr5flg5rcrizusxrg/LSZ+amfplKDVgV3DTapHOS0OaVh1Dai+1Zo/vpvpLwJdUtRdJ+9XV+rsJZuyXld52e0fE79UIS2+Q9s/2apz9k3cZpDvrnnQntKomJLGI7CTdYaNdkncaYTP4pgwkLU0NR8fIRb/b+2/NFd/b0Tkdt3Ve7DryC/0LadY3szu75XzwTROOm16RFN49lFeDViRJYuCbc/mlobcNgD17our682XPegLaODVTToeL0/v0pQvzctu9Ch4Nj2WmkXVb3v+KXH855QUhxpz/reIxkN1z+4vsVDHDaYUCPZ/ILkH2cWwRLODug8hOWgKp9jIQP6f58kCPwuwKEL/eEjhMk+Gy5KtYrkdxtxJ+/fCMmu5akak+RzJ9OOxHWpc2XLhhN3bIA19KjRrTbqAKkbQgahQcy+rUl08J7yucxQZ4vu0EMloZZtdzqpsQVgbKBYp8cN6MFTPUVkprq86dkhTm+Y0yTypmf0l2IoZvQJ0nlZtpmlr//j0Wpz38eqxuwSRQGsLvm0f+caPMLy3nholAqZ2iT0EaXhlNNWbBy4Ob7nsNcfKeaCuEAuHrBFRUpSbgu15MSgy+Hs3L5KQe737/aGYT/snAESJmOH5qyQsff1ctxAjSq8kXg9joQkGSk8J71d9d959agTbJPOle9a8VV7xAb766aspwX2q/pVWkYBZ4cK0CZHuD0hin5hrGFg/d9OfFdHIAK+8ROYqgVPrQbuY/N+ht4YkfPa5MtgQKH7H4tLkF5+FoQcbG9rhCVR9owsgaku7yyGH/+3mEPj5ALY6ffV2B7cBQzf40NdRUjZacfZ18IdWpTUBSowlJ+aP3vm0o7jnBDyDsOI302DWBvMgZWpnl+qknX/74ytYtveF/9wBhVUKVz6Ow9GjL454A6SDiqbLMmVBrvAXscovUcDrvHYyiONjQpgPua5DO4gpumigldl+RBCKHegOsjTJHC5yrZagZG9ethrpiIJMkL182RNWEPvfP10VCQDXt19p6BwANZvRpyKhk3o9e/vh7i6mNYxGbofKpvjDqzWPeqcivREAjrUkt2hUhpa1xM+77mTVLLW1awZetrJr8k4E8dnyDtG1IoJhiQ79BSp0J0SIdVzCpyLEMCn1vgmbQSVT4dBSc3xjqgNT1qLpQehWFguRWQp0HDxcO2zhXrQvY2XXrtgYxZsydOkmrzw3/5WAu5Vm0XCcipO+3axbgbQLKuZSOqVeSRLv3pY++90vyrWfhmnWE0UujRhtZS+o/jrtkXqFI++F0Yp81aWJqetkVajOJjyunjE9wfcYGmSdDpt81G5BCxpQ6zxcPbppN4xb4AezJLc577z6WqnptcOOs+pR0XqjiFoQi7y2zoRUh+Tgp83SmJk4Vhgf3GKJsyWr1EiwwztS1xFBfOtt9oYIdBcgIqrg9WonX9Voee+njK88n/1CVDwe+UC8GVZBHDrt5pJT8GDJ/8Fl2QW2IGr0Z00Wc5Zj/w3dWXPE0/V5Zfv4AjbM5qlSiJhA7gCZISYGER7Ur1VDa5Wwa1PneH6hEJsK7ylRgUnBxi4PignMaZNXLUl66BhPWJpnPaoGnNs5AZdMrQkWEaqqSUBeoHEKBx6v1SuA7EWj1IGXGQI03lGRfeeVpdIGG0EaqPGFgJiQ38up0XYtBlQ3wsXfB7KKKT5RpTpCZ85+PrryxUEaY0Lz7Krm5Z5751Eqt9zqrugjELyEJtSYIKkPXFOFHbGHdut7AAWytCntI46x5Wem9WA61G9+/dwkvma/C5ewfe7bMfT/0DNsQegpVeD8//FfjNG4c6QdZGrHSb40v2xtKZZUMqp/kuhaHfUYj9NJXFUv2aKx8AZytoAqRnuBq77D+LvB9Apg0mpYw7CDznx9+/LzKC7y6XF01+Rc1PHYCkQvvvaM0Uqotl5DoZ/bccO+yeWo4bM+6rrYGkvIfDTsnTueCs1uoAAEaVTx00lOgTEJx5AbNxUWAamYcjSfoDfudEKpjgbgkHMLJbZJyym/XBNmcNP3BRrbSu2qaFjM1HuNekH9BSPn5F8NWaAivuoL20wZyw6jRoYSXLEVHThsTqft3BeA1QHYhTNP3c40iEKdMLLR0r62eNDnJjR82SNV7Sypgl985IgU92FNHgDlBirttkjpfsHVrWTiXvS+x98rRKhOGNM6eCyn/SpLryA81MWGzdHbNqX+kzmsp6TZwyf8Kb+Agutwr4Eftd+Mg39HeQYaVIdVEhH4bPNG3oMwk7Q9aOzdRYmnP8jw+k/eyYOI3L3z83Zl0F9noS5fO2GKDz8iRt1rLll1hf2HvXx+LiviZwkZkWVQAO3tFiQziUNN5OeUUasNjXv3oiufowvrKSYe5XLwEYukO811c7650p8qjMP8LFnfotxmi0k3X6Ty6r805foBiXpxrZWReODofMWLjrDU9GWfeFZAtfyC7zV5VNXlqOTfvTQVumnOphy0fm6OYsR3dEl5XM9SCoVoyuSbIzB7aNGcq7sWlOrxu77wT/8KwX90SM4d81/Gb1AYCIHybxG0JlOjO3FeM7jzTK1CRUh1Mo8ZoUo3/IX4+LYR8YMKKlgVRAYnITOdbQzR9+PN733I1NKP/7kq+9RTbysPoelfzmnobONdUHtl+dsqSlVfOIX9qpOOa92oZN4alpWtDqloUdtchA40JEUdFG6exej0sDSCGkvA51B1p7l66V8PsP5A6H2kk2xMg/XtDRfnInHTCxsOCf9dAb0QTGjS2Jsi+J7l2wl6Nf/6op5N/2oNDUv0ykMFByLsMVIhdTrpDjtBEhzQUwHUozR9Cxr+VYOytRSuubCrcoiYN0VgEInHBa1uIOMWO2ufXX/KD4Gx4DYAX/Ej27HygfIKKEnekePSVld9VcwYIq6qmPFfNzaOaAjvf3f52klqoMERaevOROW+icvw0tIQUcpFs3y6Dqu7whG9A2HP3apzzbCHjuxNctxFNzFlZNflUqCvfRPwNSEWXGzLD91Hlxsd3eI277h+Gpu/f0NOJPx1hpyycvQVS3wcuZUEHtnonQP2i19GH2q6FbPuAzFHVSHffAB47d5O0Setpt55/54DM8aF2aznpr0tI41PVzTNbK9reAkhP6aXCvN2/RbSsdeFnryGai1/42WvYXQiP96zjtaovs1Z51KulnXr6ocI14aAZUDg7PfGp8C5hazRSISHZbx7Are9tknnqrlSjWsK7Og9kiPqf5AbPsuDEoY33LniD1ZoHsy1vBtEVIHD6nqh462lHoX7Lf0pHb8UfDrBZivD6xjShj9jNtFIDQ51YPnx5h914a/wMt1eOdsd/0s/fT2gTdV8Vit763v0ELsn+/SwbrKuGqOopP6xm5i8apU1EoutdbpCk56C65/cQ8dhGmb9xaNPsH0b2KBEkvKvn2FEyvrfeqa/fp9uJpBfsTOI6e18J/Qf6Ru+xCSYtrLCycvJF5cK4O6N6H9SaqV1u16FCFYDsVcKKNUn75b2a5nye/Etlof9B36bLiLo+1ux5XpK57GBfuprkesBpgg+g4UQGwjK0YNnATffR2N3Sh96BAXvRhArprK2acrrOxcMedLeABTRNsMvdb1QA8KEdkwnTYX4+0MRnh22a9U44eKTvBsSU0Dl0WVUjTGUvhgUhLz8nA/85TWr/0gK5iEv2LDnp83/UcGuR7YuL1X1quesSdkSQTU1k/7hy0vEg6sO0PrbPJPXHd6uvPaCWZsYME2a/4OJiInsYR4nsOwK6RfgIKBgDy7gpqO9RMG4aTBMmnOTcov5EzmRl4dYSdkBEDWhra6YeqXHxF3w/2l7FQaGgFV26DDxD/4MBnBa4dG4Z3DhrDnUtjWajSmTfQdAtwjusXJUHwXnCQ53usMDzoQKisPi0bwmD/ZaXqpGxgv6UsOOBFkMksq/eY8qYIAiejjFNt5nndpfsBbjV3DI2Bfl/wm7/HnmMw7++6LYqoXvokYSneQuGCkINx6VVYjWaLgmDnc6ph3pPuovWBQ+PJewI+JBNi1EDHQ2ZZZ5cFOdGLA+ykxrfnQ8V2mvSTXDdbJTOOhHTVN9n2DbQnTEOJfQVukX40Szchgd/8EEVqN+ttaxIxjlJfqj2g+l38bUS+he0m8q+bGZ+9YBJR7icPwOyJ7OSNi3rns1O35/sdhh1hk3zkrg8c8i6e9eTBkFtA+FdJewo6JGE5/KT/lkwWnE/ZLYUNL2PSzkkmkoYXS+h/0DrvO27YmZ+ZfW5R4OiiyCRkznp0azB7k6GoWpdfXKavy1lcPGwxjnPk2TvydrpJfQdekR4SPItSW7hSJLwbE8tEx9IHteVWur7FZJNNwS7zV5TOel4LsVC2OyJwuKT3RoyS8DHp3rcHcRjWrO0fzmkec491EhXkuw7LrpF+DdZoyKv4JJGTW0GSAwB5c5PcMPi0h9Bftf10hI9JXQNxMiQhGq47On4NH+PMd3IM58ke48Wn4QGZw/kMXO9zD04tGnOj8hvXC+srFpC36FHEj6QLF+Y5khkbl92/MI0yNH0Y8l2WJighLagCRikWakZXZWTL4px7WHqQqUGOlzu5jTXCDJfLWKxjTL3wtAmbyL5hDu0lFrkd2R0i4QmS4USXvAUrWaAH22kd/SDChQiGBP+KmF7ojCgRm35vaZ68o8qhXm3CzPLYQFtsNltm50gmbTLuRlrlPllXuCeTPGQ3d6b87ZL6Bv0TMKzoJkKES1EQApe6BsSHU5zaGGTAuFLhWH7gVrioxlpK6un3FbFYje0wPoiMwtfqltrHuB7RjOg7CRMtZR0NzpS+8o+Lfc3FDZ9KNntOwF6RHjuiwYacBOun70ZRI6KGGOfpi2JyINUTHWlhD6D6nZbMTNPe4ivrpz8yEBmfRuSmDZ5pIkO3SY7CgrV6E6MaVZWejmYc18e0Xzvh0R2agws3FrCDo5uEf6Awkg7zvlG/E2FEp7KxSeAD4f97tP2vZJztaf6eyy1W653v71AajWRfVV17T7JDdUv1ojYabR4BT4MbarY7cqWyI5v6dKEmDwNqGb8q8OaZ79K67qVyL5zoVuEX1IYeNOkt4DwbJPWYZtd6KMqg0BOoN/RkNwSehe0LkG4PHO9s7pq8lgujX9XCutQ2gYKGQ5bnovuZnzhyzom0wyiuuRywl5Ns54J+9pLZN/Z0C3Cj2GNqiX205sepaWaVxW2xCGvdpCcxtRzJsetGjI9QXYldREVLpbQC6D+dWoZp8UbV1dN/abOtIVxrg1okQ7Z1DQSsqMP02kQ2XVI9sL56Xs1zvkLxclYfalNZidEtwhPSwpBqijiQtV7v6DSk43XXpBwGyqgJfR9ZK7lBPIYMXxEifC9AJLqJGWpfx2ZzldWTb6rihu/oW5S2Ng0fp1I2m2y04NEdgNkJwXOlcHZg5tmPRqS/U4PXu2/dQk7AbpFePrYy9lyRVwuxRuqaU6167QHZDtjfgzmIyqFc8ln+YrltGtJtwtiCWF/d2HdM+fjPSYfsKZqyssDefySRmnTrEXaZrjblSq+jWqNhwqnFrGgCsQJ5FlDm2c/SF19JbLv3OimhP8ECODVnPSI0lQO2hQEeFDZkeFUWT5hTeW5I8Jld2t71A+8O4NmulEXJ/V9r6qeNFm47JVKbo7ZFOTyRHSy1wu3dhlEdlTMtFEatcabVJG7zD99r+ZZD5E2QSZZiew7N7pdODYxS3Wy+4F43WPBehrBtQVoUOs9FMoaycVU8ig0+lFlUEIngQwDES+3aKYbtYOsqpr8u3JmzY5xPdkswzXjC7d2G/iCMMukHQfZbeYFPg8mDGu6D2p8uCpO4bYSdmJ0m/BjoNqRHTks9edNYO5rlhIsm0+mISkPz0BNl2Xs4g8rp1WFK5fWlfrkO4lwLDxJ39tsmtZ6UNVer9Tw2NdT0pWoTGk5qh6NiY+AMOwk16088/LQ68dSA120BFbhlhJ2cnSb8FQAYccXWm/5PwoNd1uCkZGeM4DH9rOYo9a5W4h/wFYf2t1BXW1E9mj3kdVVU6/hvngZpDy4QeaplZwG0/RkhRoFPA9bjIbLGlZaupt8ph1Ju7kQ2UeXWuN3KfSIcGGX0J3uyspJh+lc+7eS4R2AIsEVJ8Y1E/b+euax0Xul52zsr73AdnSQ5sTYGo3yln6vqZ40Wkp+F6T6kY3SwfUAGhLZ6z2vMEF0auRzq7hpIez3hfRPGNI8d3lJjd810W0JT4gK5LDm+17xpXyN9ukGsTcjMFUDJInygZcfxOODuMZ/Qv61bH2PC+yuBiIaHSlvqUJcWTX5Gijzb1Rw68hNkOqoVJGdHBVt98le+B7Rt/IHcMtqkvYLjjSOILKXVqvZddEjwhPCflkUIC7vp+43FCSaoLEZqJDBLrTWy7yMCe3yVdWTj6Wli8OunhKI3HL4tBgRjQbS0EIVx1YZL6GCvB4SmNFAGphNPSI6gb4DfXRUHMpMGMjjxkaZf/COpgOP2bd5ZhORvbRaza6LHhUeAqmfVEBX7nHugdzT3kZhom4d6svtMGyokF6SG3pWusuGNJWPIkkGqdYnG+ftLCgm2caaqcPsQP7UYOKiBNdYS+DkJecG8rVbO622B30UhEOVh1nBDQY1/ld7Nc3+Pl0rqfG7Pnos4YnsKEB82Ma576LEPF7NacUk2sigY6CggeyeU8WtkWuqUn8MfUdBTyW7dfcCVXT03hHZV1dP+b4TyP/UcOsiHzIYUj0P1QlSv3fITkA4dpzrIDZjLcz+2idkp/aYEtl3dfQKyerVDp5gvZD/R91vONNIypNfe5AnnAHJ4ldyawpU+6uo0niTLdV3B9Kr6SeK6LRMUD3MnxkBLT0F90YlM2+ymFZDLfC4Tru29rhvPQI1zsGpxjlUuOskD44e3DjnrqgnIGqPKWHXRq8Q7E1IaDoOaZzzZLN0F6NQoQBJe0tSHv7qEiQYSzDjf1ZXTTk/XLBh1yU9EStcAorD3CGiM7mqesoxePe/l3Pj4STXRzdJO6BBSsgeGhqLvOgdENERrxjAY6ho7YXS10aD7M+TVKdvF3X7lbDrY0uc7DKi/uK11VMnlzF9NoiPQiRh329tqKd0NSZgn3LmClk7tGHW/USKMewdkGLXKISUL3uxuFbcEPZRzeTP6wG/Ks61M2kjD+RV1H5B45N75ZtQIKGWJR2o8BY1/OWkp7ZtputRlyqdl7D7oNcIHzW8kaoKqfUvSPmjILFoZdQtLoMcFkrpGkyj1mdmS//iYc1z7qFrO3sDElVcA5it0VDYghdbV33e0Z4MrjC5mFjBDLZR5sn+6fEac+1BeUkmAQ5+NbcsSPUGKfmlNCaerhcP5ilh90KvEZ4QkfTj6iknxqWYT5tRoERvdR21iPQ6JH2MaywduNfv1Tznx3QtWq6JzncWhKPT6L3CyopMlNVV753KubyUS3FKDTfZJknCXuYlKkOoP5uPR+4Bwvxk1GhqDkBdi7j+Dq9LINlXhGkb5VG7gbq5hN0OvUx4sr/VtE1/ddXkWdU8NoXWU0PBVhK8I5DOSYWe+oUh6fRqEKJBOvOFJS6iLYtIc1jI1qullguP7HAI33sNKrVPpo6uHnzRQJnLTeVcXACJfliC6axFusyXAbW891o3WzEoLxG/U8YNi7Z9QmzXDm2a83O6RpXniBUzqV2lt6MtYSdCrxKeQFKEGuDWDpq0Z+CIN2JM2yPH/K1KeQIlhLQBHCQ1+jVLZ6Nk8rt7Nc2ZRdeJ+PU41rJ5NBS03wotIkZSw1106lG51bJ6Gs/emh7axklI7SJ4nVnOzQF0IQOiF6QueA7m9zIQB0VD6dD24DEyFd72RXDh3g33vRheL/WvlxBCFdzeBs3ZJtt1TfWkiWXMmtsiHZR3TgunbDM+kJwKr2fBrqc95lPS/asugx8Nar7vlfAOVYBReYyisFDI+1Y9RWIQD3U7Unw04WeRamEPr4ZYU3nevlIEZyHpU0ymHR7nOjWQMRvyHI/T/ZTWvpodSAuKsDKu6zR/PR/4tz7b7H6f5ihElWRpvkIJEagg9gmk6ttd5NG87YE8/vUNMmcL2KxtmLJ1EFtYJTe1HPOYK/3ZTNNvGbrpz4vDyyGotfk99pE4gO0T1LPGoL3E7QqInSG5q0UYplp0E4TdnDCrBkz+lPD5l1BBnQGTZRzsZZ2W80pLxT9UQmqwYacqua6CAoQJRBUdtX1YtJFjk3Teht7zzSHNs5+me0oNcyV0hF4vjBFABBT2UPUG6V+q5tbnmgInBwrEcU3d0zlAH2bcoAaoFlilIP5TKOyzpdD+vnfDrJWFm1pBreOHM0usGN7C2Qowgq2TRNw3C9cJ1Kj2HkuBJntyRivm474RLEsE6pDchBUDJg0VgThUY/KL0EHG492OGMBjkKo0Io5UdungrXq0HHRnQB8M8ailp6th+tAAJpzftFfTAddC21FzE0azedTv3pVMLmE3QZ8RnhBJGSKL7otXoXYOhD1LSzF1esGGUJqRuKSmbR6jobsgFySavR6XnhVMLGTCfynvW+/Q5A/1UA/xUcU5NYKb+8DiPghRfRZeYyD2D4lxbXAZM1CJBJDkLuS5am6nyo3GEnR7KejOIMwH2pKXOUlhxEwkDlL97/j9o6HNs5fQPaVNIUrYFvqU8ISoEW915ZQxYO1ztHxSuHNp1zYzjAo85JYD3UFPcE2PMR2kCwoDV+QK3LNMcrmMB+IDLthKXFqvsaDJ0bWs5nE8FwSOdIRuaGCtlhCcVUjJB4Cqe8ogGIZY9kEYIxD+3qhgBsMWj1EcpJHYCIzscpyrlu5CzwNJdPj1PRCHozGuuto2yPwq5MO1UN/VXIRQqq+HKVNS4UvYOqi89jmi2WC0SQIK7j/iTBcgPbUad3lqLCW4YCDTKDEQTxoG04QJhtO6euF1WnwxoKWVSQoTS13cR2QgbpJdTfN4IZWFYRSeI4/oWbV4I55VbeuhSUEn4JjUcReNhlMB9TUQH6JRcYsabvFGaZO5cVNcGjdUF7SZQt5SXm6PJJWwk4PK7nZBRPo1lVPHQdI+leCGWvYKl0hSdjsdRAqQkCS8Ygf+w6khvaAyV/1gIZXbAs+FdA6PeFSFQxNM6G6S4CocCo8CDZ/aPkBiiNgUuU4NcrRHHzSMOYEhfrLPhnuXhffQhh6DkOZSC3wJncd2Lshhf/DqAVM/x/zgLxXcqm6Rjg2S9ZoNTMylI1RyqgA6CeK0yoztmh/tgfSSFhLoUN2TIHoWSgm0jPlc49cN3TTr5fAe1SUJopdGy5XQdWz3Ah7Z9Msrz9vX4MFje3Br9EaZV+o2SG/0Bul3JtAHgBnhwV7wNC5itChFk3RI65gPdeOmvQvdbKFEH9fn4w5K2LXRLxItUu8/GnZOXE8b91Tz2LkpmMqeDHJIUbxw224AvLRkvsG1WCU32QaZIzI/iI9y+9CmOYvoDurpGMgGiXD6cAkl9Az9psLSVsPR7qMrq6Z8C/bqr6q5ZTZKe7v0Z/cnYMKoaalQ240k09l6mc/hfWcxLbhj6Kb71MAi5AFfPnyate+KmWqmDfmVUEJP0W+EJ4QLYIYTTlYOmHqQ8OVtNdz6MtmueebRqi8g/fZvNOtN4B0KZA1b3KkhrgLSnNAk7Q/xYvdwqd07pPneD5UnQJXhAazGLanvJfQ2+p1I4UyzhSLqQ15VNXkql/x/qoW1N006sZkPu1W1nlPLO+7d8VEgeTTElyosLcZ1ZjFBi0ZSl+JTTMjfD67Z43Gx7JOBMuHiH0P8EtFL6Cv0O+EjUOtz1MX07sgJVnJjzfdwekUlN/akjnSS+gDUfeILo/7wHSLtlAhiNdJFJEX61ZBWTWdco8k/1Mcftrb7byHJ96PamjVs06x3cI8CVXgdzboroYS+wA5D+Agk5WjvOTpvqK6tzDHjMlDoohjXPkXr3lOfdJ75HpfSA/WVrR9J/r5mS5RZxQSHH5GcWG4ifZwW8SA0qx1i5FJc+Btn4qEhzbPU3loEqtxojv+4DmbelVBCX2KHIzwBDABPLjejceEk8RObqk4XUkyWUh5fJawKGhlHklPNtZfQ/cM3oUUlVAXQ/sU6y6qOnoOjQ0hwKQNUNHSbYTFd0NrxlBakg+a9N+HSq7DW/wn94+9Dhrov8KWftK6Tbb6KveaXZrGV0F/YIQkfgbqkRrARevG6cB/vMfkAzWMnQLOfAOIdRRNyaDUZUvvz+Et70YOZ1BCozAMwFdyjpaGVCQBHJkF7c0A1qClu04Cd6FxdCUfb6SYTnFR0ssOJ7zRlNxN4zXhgKQJ7MeDB84Yvl+zZMvd9ei4CDTZazhIC76F2lCl4l1BCv6Bdwd8xQYNOJPuM1n4m2Po9pg6xPf9wwcVRoOjnwdVR4PJeNHjFKPTqhWPj1Zj68Bw0pt8R88gWIDubVAKiMklrciGtOWgdKOmdD7wUbl0Or6Vwr+KuV6HVvzWkafZHeFRVDhGiKboc0rw0oaWEHQk7BeEjRGvHLWTvdLiW+oYBF5e70t6bB3I/SOr9oXvvC9m+Fx4chFetglxPQmIncGsFfkcrxdLSUy045nBfBrGQ1N4AWb+WCfkxmLxc4/JDTWgfDdw4cl1HUhr38CVsuj5G/WoMSuPbS9gxwdj/B54+at44BCDlAAAAAElFTkSuQmCC" parent="1" vertex="1">
          <mxGeometry x="234" y="156.99" width="58" height="37.98" as="geometry" />
        </mxCell>
        <mxCell id="ru4b-D5XG0hifPztKetk-18" value="PT SUBNET DATA NUSANTARA" style="text;html=1;align=center;verticalAlign=middle;resizable=0;points=[];autosize=1;strokeColor=none;fillColor=none;fontSize=17;fontStyle=1;fontColor=#4D4D4D;" parent="1" vertex="1">
          <mxGeometry x="292" y="159.98" width="270" height="30" as="geometry" />
        </mxCell>
        <mxCell id="ru4b-D5XG0hifPztKetk-23" value="" style="fontColor=#0066CC;verticalAlign=top;verticalLabelPosition=bottom;labelPosition=center;align=center;html=1;outlineConnect=0;fillColor=#CCCCCC;strokeColor=#6881B3;gradientColor=none;gradientDirection=north;strokeWidth=2;shape=mxgraph.networks.rack;fontSize=11;" parent="1" vertex="1">
          <mxGeometry x="112" y="272" width="50" height="100" as="geometry" />
        </mxCell>
        <mxCell id="ru4b-D5XG0hifPztKetk-26" value="AS55685" style="text;html=1;align=center;verticalAlign=middle;resizable=0;points=[];autosize=1;strokeColor=none;fillColor=none;fontSize=12;fontColor=#CC6600;fontStyle=1" parent="1" vertex="1">
          <mxGeometry x="157" y="324" width="70" height="20" as="geometry" />
        </mxCell>
        <mxCell id="ru4b-D5XG0hifPztKetk-27" value="Fiber Optic" style="text;html=1;align=center;verticalAlign=middle;resizable=0;points=[];autosize=1;strokeColor=none;fillColor=none;fontSize=10;" parent="1" vertex="1">
          <mxGeometry x="171" y="299" width="60" height="20" as="geometry" />
        </mxCell>
        <mxCell id="ru4b-D5XG0hifPztKetk-30" value="NOC KAB REMBANG" style="rounded=0;whiteSpace=wrap;html=1;fontSize=14;fontColor=#666666;strokeColor=#4D4D4D;strokeWidth=2;fillColor=none;fontStyle=1" parent="1" vertex="1">
          <mxGeometry x="255" y="680" width="155" height="26" as="geometry" />
        </mxCell>
        <mxCell id="MS-zmarhWU9lyRm9FqKN-1" value="NAP &amp;amp; JARTUP&lt;br style=&quot;font-size: 10px;&quot;&gt;PT JALA LINTAS MEDIA" style="text;html=1;align=left;verticalAlign=middle;resizable=0;points=[];autosize=1;strokeColor=none;fillColor=none;rotation=0;fontStyle=1;fontSize=10;fontColor=#666666;" parent="1" vertex="1">
          <mxGeometry x="108" y="377" width="125" height="28" as="geometry" />
        </mxCell>
        <mxCell id="gryyCG3sV5nBuuxgC75P-1" value="" style="image;html=1;image=img/lib/clip_art/networking/Wireless_Router_N_128x128.png" vertex="1" parent="1">
          <mxGeometry x="755" y="512.5" width="80" height="80" as="geometry" />
        </mxCell>
        <mxCell id="gryyCG3sV5nBuuxgC75P-3" value="ROUTER Wireless 2.4GHz&lt;br style=&quot;font-size: 10px&quot;&gt;Merek: Totolink&lt;br style=&quot;font-size: 10px&quot;&gt;Type: A720R&lt;br style=&quot;font-size: 10px&quot;&gt;SN: 5C925E9B5AF8" style="text;html=1;align=left;verticalAlign=middle;resizable=0;points=[];autosize=1;strokeColor=none;fillColor=none;fontStyle=1;fontSize=10;fontColor=#4D4D4D;" vertex="1" parent="1">
          <mxGeometry x="736.5" y="600.5" width="133" height="52" as="geometry" />
        </mxCell>
        <mxCell id="gryyCG3sV5nBuuxgC75P-6" value="" style="rounded=0;whiteSpace=wrap;html=1;fontSize=10;fontColor=#4D4D4D;fillColor=none;strokeWidth=2;" vertex="1" parent="1">
          <mxGeometry x="237" y="205" width="722" height="519" as="geometry" />
        </mxCell>
      </root>
    </mxGraphModel>
  </diagram>
</mxfile>
